<svg width="512" height="512" id="hexatar-preview" version="1.1" xmlns="http://www.w3.org/2000/svg" xmlns:xlink="http://www.w3.org/1999/xlink" x="0px" y="0px" viewBox="0 0 512 512" style="enable-background:new 0 0 512 512;" xml:space="preserve">
    <g id="hexatar-background"><g class="hexatar-base">
		<rect class="col-obj" x="-0.004" y="0.003" style="fill: rgb(224, 105, 97);" width="512" height="512"></rect>
	</g></g>
	<g id="hexatar-hair-rear"></g>
	<g id="hexatar-bodies">
		<g id="hexatar-body">
			<polygon class="col-obj" style="fill: rgb(244, 200, 174);" points="380.515,465 301,451 301,334 211,334 211,451 131.636,465 94.115,512   418.035,512 "></polygon>
			<polygon class="shadow-obj" style="fill: rgb(238, 170, 129);" points="380.541,465 301,451 301,334 256,334 256,512 418.062,512 "></polygon>
			<polygon id="hexatar-neck-control" class="shadow-obj-2x" style="opacity: 0.5; fill: rgb(232, 140, 84);" points="301.054,387.482 255.998,427.693 210.942,384.615  210.942,333.485 301.054,333.485 "></polygon>
		</g>
		<g id="hexatar-clothes"><g class="hexatar-base">
		<path class="white-obj" style="fill:#FFFFFF;" d="M305.22,511.994h-98.984v-42.759c0,0,23.37,11.976,49.769,11.976 s49.215-11.976,49.215-11.976V511.994z"></path>
		<path class="col-obj" style="fill: rgb(255, 255, 255);" d="M129.243,464.994l-37.084,47h136.667v-51.526l-32.076-25.152L129.243,464.994z M382.755,464.994l-67.474-29.678l-31.998,25.087v51.582l-0.014,0.009h136.571L382.755,464.994z"></path>
		<path class="shadow-obj" style="opacity: 0.4; fill: rgb(230, 230, 230);" d="M92.159,511.994L140.836,512l-11.37-47.006L92.159,511.994z M383.147,464.994L372.426,512l48.028-0.006L383.147,464.994z"></path>
		<path class="shadow-obj-2x" style="fill: rgb(204, 204, 204);" d="M211.014,411.456l-14.264,23.861l-1.127,35.071l33.203-9.919l-17.855-34.772 L211.014,411.456z M301.023,411.456v14.445l-17.741,34.502l34.716,9.983l-2.718-35.071L301.023,411.456z"></path>
	</g></g>
	</g>
	<g id="hexatar-faces">
		<g id="hexatar-ears"><g class="hexatar-base">
		<g class="hexatar-ears-right"> 	<polygon class="col-obj" style="fill: rgb(244, 200, 174);" points="172.046,162.41 172.046,244.742 155.235,244.742 115.324,187.268  132.991,162.41"></polygon> 	<polygon class="shadow-obj" style="fill: rgb(238, 170, 129);" points="172.046,173.299 172.046,227.539 157.864,227.539 129.571,189.675  140.913,173.299"></polygon>
		</g>
		<g class="hexatar-ears-left"> 	<polygon class="shadow-obj" style="fill: rgb(238, 170, 129);" points="339.621,244.742 339.621,162.41 377.672,162.41 395.338,187.268  355.428,244.742"></polygon> 	<polygon class="shadow-obj-2x" style="fill: rgb(232, 140, 84);" points="339.621,227.852 339.621,172.985 370.453,172.985 381.925,189.55  353.306,227.852"></polygon>
		</g>
	</g></g>
		<g id="hexatar-face"><g class="hexatar-base">
		<polygon class="col-obj" style="fill: rgb(244, 200, 174);" points="256.005,7.17 153.605,71.355 153.605,291.893 216.444,386.05  248.348,386.05 296.385,386.05 358.404,291.893 358.404,71.355"></polygon>
		<polygon class="shadow-obj" style="fill: rgb(238, 170, 129);" points="256.006,7.17 256.005,386.05 264.637,386.05 296.385,386.05  358.404,291.893 358.405,71.355"></polygon>
	</g></g>
		<g id="hexatar-mouth"><g class="hexatar-base">
		<polygon class="col-obj" style="fill: rgb(223, 144, 129);" points="220.382,310.439 292.295,310.439 275.79,322.284 236.887,322.284"></polygon>
		<polygon class="shadow-obj" style="fill: rgb(213, 108, 88);" points="256.219,303.468 245.61,297.601 211.196,310.487 301.481,310.487  266.729,297.491"></polygon>
	</g></g>
		<g id="hexatar-beard"><g class="hexatar-base">
		<path class="col-obj has-mustache" style="fill: rgb(66, 66, 66);" d="M358.613,227.765h-18.924v73.6l-55.127-28.27h-54.954 l-57.071,30.394v-75.724h-18.924v123.917l72.889,60.344h61.166l70.936-60.344h-0.001L358.613,227.765z M294.961,344.784h-79.622 v-38.88l13.543-18.859h52.536l13.543,18.859V344.784z"></path>
		<polygon class="shadow-obj" style="opacity: 0.4; fill: rgb(40, 40, 40);" points="358.613,227.765 339.689,227.765 339.689,301.365 284.562,273.095  256.093,273.095 256.093,287.045 281.419,287.045 294.961,305.904 294.961,344.784 256.093,344.784 256.093,412.026  287.667,412.026 358.604,351.682 358.603,351.682"></polygon>
	</g></g>
		<g id="hexatar-mustache"></g>
		<g id="hexatar-nose"><g class="hexatar-base">
		<polygon class="shadow-obj" style="fill: rgb(238, 170, 129);" points="271.118,238.727 261.69,180.775 250.312,180.775 240.883,238.727  236.032,238.727 231.425,252.463 237.569,257.069 240.677,256.214 249.857,266.281 256.001,266.281 262.145,266.281  271.325,256.214 274.433,257.069 280.577,252.463 275.969,238.727"></polygon>
		<polygon class="shadow-obj-2x" style="fill: rgb(232, 140, 84);" points="271.118,238.727 261.69,180.775 256.001,180.775 256.001,266.281  262.145,266.281 271.325,256.214 274.433,257.069 280.577,252.463 275.969,238.727"></polygon>
	</g></g>
		<g id="hexatar-eyeGroup">
			<g id="hexatar-eye"><g class="hexatar-base">
		<g class="hexatar-eye-right">
			<path class="col-obj" style="fill: rgb(17, 17, 17);" d="M221.12,190.857h-30.873c-0.943,0-1.715,0.772-1.715,1.715 c0,0.943,0.772,1.715,1.715,1.715h10.907c-0.009,0.115-0.034,0.225-0.034,0.342c0,2.467,2,4.468,4.468,4.468 c2.467,0,4.468-2,4.468-4.468c0-0.117-0.025-0.227-0.034-0.342h11.099c0.943,0,1.715-0.772,1.715-1.715 C222.835,191.628,222.063,190.857,221.12,190.857z"></path>
		</g>
		<g class="hexatar-eye-left">
			<path class="col-obj" style="fill: rgb(17, 17, 17);" d="M321.754,190.857h-30.873c-0.943,0-1.715,0.772-1.715,1.715 c0,0.943,0.772,1.715,1.715,1.715h10.907c-0.009,0.115-0.034,0.225-0.034,0.342c0,2.467,2,4.468,4.468,4.468 c2.467,0,4.468-2,4.468-4.468c0-0.117-0.025-0.227-0.034-0.342h11.099c0.943,0,1.715-0.772,1.715-1.715 C323.469,191.628,322.697,190.857,321.754,190.857z"></path>
			<path class="shadow-obj" d="M321.754,190.857h-30.873c-0.943,0-1.715,0.772-1.715,1.715c0,0.943,0.772,1.715,1.715,1.715h10.907 c-0.009,0.115-0.034,0.225-0.034,0.342c0,2.467,2,4.468,4.468,4.468c2.467,0,4.468-2,4.468-4.468 c0-0.117-0.025-0.227-0.034-0.342h11.099c0.943,0,1.715-0.772,1.715-1.715C323.469,191.628,322.697,190.857,321.754,190.857z" style="fill: rgb(0, 0, 0);"></path>
		</g>
	</g></g>
			<g id="hexatar-eyebrows"><g class="hexatar-base">
		<g class="hexatar-eyebrows-right"> 	<path class="col-obj" style="fill: rgb(66, 66, 66);" d="M177.94,175.889l13.191-2.825l44.548,4.564c3.596,0.426,6.563-2.776,5.866-6.33 l-1.646-8.383l-7.205,3.505l-33.753-6.147C191.657,160.784,184.534,172.754,177.94,175.889L177.94,175.889z"></path>
		</g>
		<g class="hexatar-eyebrows-left"> 	<path class="col-obj" style="fill: rgb(66, 66, 66);" d="M334.84,175.74l-13.188-2.678l-44.552,4.687 c-3.595,0.437-6.573-2.757-5.886-6.312l1.629-8.425l7.21,3.437l33.757-6.215C321.096,160.708,328.229,172.641,334.84,175.74 L334.84,175.74z"></path> 	<path class="shadow-obj" style="opacity: 0.4; fill: rgb(40, 40, 40);" d="M334.84,175.74l-13.188-2.678l-44.552,4.687 c-3.595,0.437-6.573-2.757-5.886-6.312l1.629-8.425l7.21,3.437l33.757-6.215C321.096,160.708,328.229,172.641,334.84,175.74 L334.84,175.74z"></path>
		</g>
	</g></g>	
		</g>
		<g id="hexatar-hair-front"><g class="element-front">
			<polygon class="col-obj" style="fill: rgb(66, 66, 66);" points="256.211,6.901 153.602,70.984 153.602,175.3 172.582,175.3  172.582,80.4 309.162,106.291 339.49,73.22 339.49,175.3 358.403,175.3 358.403,70.984"></polygon>
			<polygon class="col-obj hair-ext" style="fill: rgb(66, 66, 66); display: none;" points="139.876,39.763 154.468,72.834 256.211,6.901"></polygon>
			<polygon class="shadow-obj" style="opacity: 0.4; fill: rgb(40, 40, 40);" points="256.211,6.901 256.211,96.253 309.162,106.291 339.49,73.22  339.49,175.3 358.403,175.3 358.403,70.984"></polygon>
		</g></g>
		<g id="hexatar-hat"><g class="hexatar-base">
		<polygon class="col-obj" style="fill: rgb(255, 255, 255);" points="369.173,28.198 255.755,-21.781 149.628,32.801 118.067,79.125  118.067,103.301 153.303,133.986 153.303,151.301 358.754,151.301 358.754,102.285 369.173,86.691 381.802,57.445"></polygon>
		<polygon class="shadow-obj" style="opacity: 0.4; fill: rgb(230, 230, 230);" points="256.001,-21.781 369.419,28.198 382.049,57.445  369.419,86.691 359,102.285 359,151.301 256,151.301"></polygon>
		<polygon class="shadow-obj" style="opacity: 0.4; fill: rgb(230, 230, 230);" points="313.992,102.285 324.911,80.41 313.992,56.916  318.631,81.168 305.575,102.285 238.719,102.285 226.223,80.602 230.027,61.154 220.221,81.719 231.825,102.285 184.216,102.285  168.32,87.624 168.396,72.296 164.08,86.976 177.323,102.285 153.55,102.285 144.117,95.283 128.12,102.285 153.55,128.87  153.55,105.253 359,105.253 359,102.285"></polygon>
	</g></g>
		<g id="hexatar-eyeglasses"></g>
	</g>
	<desc>Avatar generated from Hexatar.com - created with Snap</desc><text transform="matrix(1 0 0 1 0 528)" font-size="12">Avatar generated from Hexatar.com</text></svg>