<?xml version="1.0" encoding="utf-8"?>
<!-- Generator: Adobe Illustrator 19.1.0, SVG Export Plug-In . SVG Version: 6.00 Build 0)  -->
<svg version="1.1" id="hexatar-preview" xmlns="http://www.w3.org/2000/svg" xmlns:xlink="http://www.w3.org/1999/xlink" x="0px"
	 y="0px" viewBox="-536 -124.2 1007 801.1" style="enable-background:new -536 -124.2 1007 801.1;" xml:space="preserve">
<style type="text/css">
	.st0{fill:#E06961;stroke:#FFFFFF;stroke-miterlimit:10;}
	.st1{font-family:'MyriadPro-Bold';}
	.st2{font-size:605px;}
	.st3{display:none;}
	.st4{display:inline;}
	.st5{fill:#E06961;}
	.st6{fill:#F4C8AE;}
	.st7{fill:#EEAA81;}
	.st8{opacity:0.5;fill:#E88C54;enable-background:new    ;}
	.st9{fill:#FFFFFF;}
	.st10{opacity:0.4;fill:#E6E6E6;enable-background:new    ;}
	.st11{fill:#CCCCCC;}
	.st12{fill:#E88C54;}
	.st13{fill:#DF9081;}
	.st14{fill:#D56C58;}
	.st15{fill:#424242;}
	.st16{opacity:0.4;fill:#282828;enable-background:new    ;}
	.st17{fill:#111111;}
	.st18{display:none;fill:#424242;}
	.st19{font-family:'MyriadPro-Semibold';}
	.st20{font-size:46px;}
</style>
<g id="hexatar-hair-rear">
</g>
<text transform="matrix(0.9933 -0.1158 0.1158 0.9933 -527.1682 436.3773)" class="st0 st1 st2">404</text>
<g id="hexatar-mustache">
</g>
<g id="hexatar-eyeglasses">
</g>
<desc>Avatar generated from Hexatar.com - created with Snap</desc>
<g id="hexatar-background" class="st3">
	<g class="st4">
		<rect x="-297" y="164.9" class="st5" width="512" height="512"/>
	</g>
</g>
<g id="hexatar-bodies">
	<g id="hexatar-body">
		<polygon class="st6" points="83.5,629.9 4,615.9 4,498.9 -86,498.9 -86,615.9 -165.4,629.9 -202.9,676.9 121,676.9 		"/>
		<polygon class="st7" points="83.5,629.9 4,615.9 4,498.9 -41,498.9 -41,676.9 121.1,676.9 		"/>
		<polygon id="hexatar-neck-control" class="st8" points="4.1,552.4 -41,592.6 -86.1,549.5 -86.1,498.4 4.1,498.4 		"/>
	</g>
	<g id="hexatar-clothes">
		<g>
			<path class="st9" d="M8.2,676.9h-99v-42.8c0,0,23.4,12,49.8,12s49.2-12,49.2-12V676.9z"/>
			<path class="st9" d="M-167.8,629.9l-37.1,47h136.7v-51.5l-32.1-25.2L-167.8,629.9z M85.8,629.9l-67.5-29.7l-32,25.1v51.6l0,0
				h136.6L85.8,629.9z"/>
			<path class="st10" d="M-204.8,676.9l48.7,0l-11.4-47L-204.8,676.9z M86.1,629.9l-10.7,47l48,0L86.1,629.9z"/>
			<path class="st11" d="M-86,576.3l-14.3,23.9l-1.1,35.1l33.2-9.9L-86,590.6L-86,576.3z M4,576.3v14.4l-17.7,34.5l34.7,10
				l-2.7-35.1L4,576.3z"/>
		</g>
	</g>
</g>
<g id="hexatar-ears">
	<g>
		<g>
			<polygon class="st6" points="-125,327.3 -125,409.6 -141.8,409.6 -181.7,352.2 -164,327.3 			"/>
			<polygon class="st7" points="-125,338.2 -125,392.4 -139.1,392.4 -167.4,354.6 -156.1,338.2 			"/>
		</g>
		<g>
			<polygon class="st7" points="42.6,409.6 42.6,327.3 80.7,327.3 98.3,352.2 58.4,409.6 			"/>
			<polygon class="st12" points="42.6,392.7 42.6,337.9 73.5,337.9 84.9,354.4 56.3,392.7 			"/>
		</g>
	</g>
</g>
<g id="hexatar-face">
	<g>
		<polygon class="st6" points="-41,172.1 -143.4,236.2 -143.4,456.8 -80.6,550.9 -48.7,550.9 -0.6,550.9 61.4,456.8 61.4,236.2 		
			"/>
		<polygon class="st7" points="-41,172.1 -41,550.9 -32.4,550.9 -0.6,550.9 61.4,456.8 61.4,236.2 		"/>
	</g>
</g>
<g id="hexatar-mouth">
	<g>
		<polygon class="st13" points="-76.6,475.3 -4.7,475.3 -21.2,487.2 -60.1,487.2 		"/>
		<polygon class="st14" points="-40.8,468.4 -51.4,462.5 -85.8,475.4 4.5,475.4 -30.3,462.4 		"/>
	</g>
</g>
<g id="hexatar-beard">
	<g>
		<path class="st15" d="M61.6,392.7H42.7v73.6L-12.4,438h-55l-57.1,30.4v-75.7h-18.9v123.9l72.9,60.3h61.2l70.9-60.3h0L61.6,392.7z
			 M-2,509.7h-79.6v-38.9l13.5-18.9h52.5L-2,470.8V509.7z"/>
		<polygon class="st16" points="61.6,392.7 42.7,392.7 42.7,466.3 -12.4,438 -40.9,438 -40.9,451.9 -15.6,451.9 -2,470.8 -2,509.7 
			-40.9,509.7 -40.9,576.9 -9.3,576.9 61.6,516.6 61.6,516.6 		"/>
	</g>
</g>
<g id="hexatar-nose">
	<g>
		<polygon class="st7" points="-25.9,403.6 -35.3,345.7 -46.7,345.7 -56.1,403.6 -61,403.6 -65.6,417.4 -59.4,422 -56.3,421.1 
			-47.1,431.2 -41,431.2 -34.9,431.2 -25.7,421.1 -22.6,422 -16.4,417.4 -21,403.6 		"/>
		<polygon class="st12" points="-25.9,403.6 -35.3,345.7 -41,345.7 -41,431.2 -34.9,431.2 -25.7,421.1 -22.6,422 -16.4,417.4 
			-21,403.6 		"/>
	</g>
</g>
<g id="hexatar-eyeGroup">
	<g id="hexatar-eye">
		<g>
			<g>
				<path class="st17" d="M-75.9,355.7h-30.9c-0.9,0-1.7,0.8-1.7,1.7s0.8,1.7,1.7,1.7h10.9c0,0.1,0,0.2,0,0.3c0,2.5,2,4.5,4.5,4.5
					c2.5,0,4.5-2,4.5-4.5c0-0.1,0-0.2,0-0.3h11.1c0.9,0,1.7-0.8,1.7-1.7C-74.2,356.5-74.9,355.7-75.9,355.7z"/>
			</g>
			<g>
				<path class="st17" d="M24.8,355.7H-6.1c-0.9,0-1.7,0.8-1.7,1.7s0.8,1.7,1.7,1.7H4.8c0,0.1,0,0.2,0,0.3c0,2.5,2,4.5,4.5,4.5
					c2.5,0,4.5-2,4.5-4.5c0-0.1,0-0.2,0-0.3h11.1c0.9,0,1.7-0.8,1.7-1.7C26.5,356.5,25.7,355.7,24.8,355.7z"/>
				<path d="M24.8,355.7H-6.1c-0.9,0-1.7,0.8-1.7,1.7s0.8,1.7,1.7,1.7H4.8c0,0.1,0,0.2,0,0.3c0,2.5,2,4.5,4.5,4.5
					c2.5,0,4.5-2,4.5-4.5c0-0.1,0-0.2,0-0.3h11.1c0.9,0,1.7-0.8,1.7-1.7C26.5,356.5,25.7,355.7,24.8,355.7z"/>
			</g>
		</g>
	</g>
	<g id="hexatar-eyebrows">
		<g>
			<g>
				<path class="st15" d="M-119.1,340.8l13.2-2.8l44.5,4.6c3.6,0.4,6.6-2.8,5.9-6.3l-1.6-8.4l-7.2,3.5l-33.8-6.1
					C-105.3,325.7-112.5,337.6-119.1,340.8L-119.1,340.8z"/>
			</g>
			<g>
				<path class="st15" d="M37.8,340.6L24.7,338l-44.6,4.7c-3.6,0.4-6.6-2.8-5.9-6.3l1.6-8.4l7.2,3.4l33.8-6.2
					C24.1,325.6,31.2,337.5,37.8,340.6L37.8,340.6z"/>
				<path class="st16" d="M37.8,340.6L24.7,338l-44.6,4.7c-3.6,0.4-6.6-2.8-5.9-6.3l1.6-8.4l7.2,3.4l33.8-6.2
					C24.1,325.6,31.2,337.5,37.8,340.6L37.8,340.6z"/>
			</g>
		</g>
	</g>
</g>
<g id="hexatar-hair-front">
	<g>
		<polygon class="st15" points="-40.8,171.8 -143.4,235.9 -143.4,340.2 -124.4,340.2 -124.4,245.3 12.2,271.2 42.5,238.1 
			42.5,340.2 61.4,340.2 61.4,235.9 		"/>
		<polygon class="st18" points="-157.1,204.7 -142.5,237.7 -40.8,171.8 		"/>
		<polygon class="st16" points="-40.8,171.8 -40.8,261.1 12.2,271.2 42.5,238.1 42.5,340.2 61.4,340.2 61.4,235.9 		"/>
	</g>
</g>
<polygon class="st9" points="-143.5,270.1 -143.5,293.8 -168.9,267.2 -152.9,260.2 -143.5,267.2 -119.7,267.2 -132.9,251.9 
	-128.6,237.2 -128.7,252.5 -112.8,267.2 -65.2,267.2 -76.8,246.6 -67,226 -70.8,245.5 -58.3,267.2 -41,267.2 -41,164.9 -83.6,164.9 
	-147.4,197.7 -178.9,244 -178.9,268.2 -143.7,298.9 -143.7,316.2 -41,316.2 -41,270.1 "/>
<rect x="61.8" y="270.1" class="st10" width="0.2" height="46"/>
<polygon class="st10" points="72.4,193.1 8.4,164.9 8.2,164.9 72.2,193.1 84.8,222.3 72.2,251.6 61.8,267.2 62,267.2 72.4,251.6 
	85,222.3 "/>
<polygon class="st9" points="-41,267.2 8.6,267.2 21.6,246.1 17,221.8 27.9,245.3 17,267.2 61.8,267.2 72.2,251.6 84.8,222.3 
	72.2,193.1 8.2,164.9 -41,164.9 "/>
<polygon class="st10" points="-41,267.2 8.6,267.2 21.6,246.1 17,221.8 27.9,245.3 17,267.2 61.8,267.2 72.2,251.6 84.8,222.3 
	72.2,193.1 8.2,164.9 -41,164.9 "/>
<rect x="-41" y="270.1" class="st9" width="102.8" height="46"/>
<rect x="-41" y="270.1" class="st10" width="102.8" height="46"/>
<polygon class="st9" points="-58.3,267.2 -70.8,245.5 -67,226 -76.8,246.6 -65.2,267.2 -112.8,267.2 -128.7,252.5 -128.6,237.2 
	-132.9,251.9 -119.7,267.2 -143.5,267.2 -152.9,260.2 -168.9,267.2 -143.5,293.8 -143.5,270.1 -41,270.1 -41,267.2 "/>
<polygon class="st10" points="-58.3,267.2 -70.8,245.5 -67,226 -76.8,246.6 -65.2,267.2 -112.8,267.2 -128.7,252.5 -128.6,237.2 
	-132.9,251.9 -119.7,267.2 -143.5,267.2 -152.9,260.2 -168.9,267.2 -143.5,293.8 -143.5,270.1 -41,270.1 -41,267.2 "/>
<rect x="61.8" y="267.2" class="st10" width="0.2" height="3"/>
<rect x="61.8" y="267.2" class="st10" width="0.2" height="3"/>
<polygon class="st9" points="27.9,245.3 17,221.8 21.6,246.1 8.6,267.2 -41,267.2 -41,270.1 61.8,270.1 61.8,267.2 17,267.2 "/>
<polygon class="st10" points="27.9,245.3 17,221.8 21.6,246.1 8.6,267.2 -41,267.2 -41,270.1 61.8,270.1 61.8,267.2 17,267.2 "/>
<polygon class="st10" points="27.9,245.3 17,221.8 21.6,246.1 8.6,267.2 -41,267.2 -41,270.1 61.8,270.1 61.8,267.2 17,267.2 "/>
<text transform="matrix(0.9934 -0.1151 0.1151 0.9934 87.3385 409.6342)" class="st5 st19 st20">AUCUN RÉSULTAT...</text>
</svg>
