<?xml version="1.0" encoding="iso-8859-1"?>
<!-- Generator: Adobe Illustrator 19.0.0, SVG Export Plug-In . SVG Version: 6.00 Build 0)  -->
<svg version="1.1" id="Layer_1" xmlns="http://www.w3.org/2000/svg" xmlns:xlink="http://www.w3.org/1999/xlink" x="0px" y="0px"
	 viewBox="0 0 511.968 511.968" style="enable-background:new 0 0 511.968 511.968;" xml:space="preserve">
<g>
	<g>
		<path d="M460.299,407.63l-1.827-0.5c-26.499-7.156-35.498-14-47.248-18.406c-7.671-2.998-14.327-5.748-20.076-8.342L355.4,346.556
			l-0.172-27.826c22.326-29.92,38.326-67.246,38.326-105.994c0-0.672,0-1.335,0-2.085c14.248-3.414,25.842-7.336,34.419-11.664
			c13.327-6.835,20.077-15.085,20.077-24.748c0-9.586-6.75-17.921-20.077-24.671c-9.999-5.077-23.921-9.499-41.497-13.327
			c-0.828-0.172-1.672-0.336-2.5-0.5c-0.422-47.247-7.5-82.667-21.248-105.165C350.478,10.577,332.557,0,310.98,0
			c-13.326,0-27.826,3.914-42.919,11.749c-4.155,2.078-8.249,4.5-12.155,7C245.407,11.913,223.736,0,200.91,0
			c-21.593,0-39.498,10.577-51.747,30.576c-13.671,22.498-20.843,57.918-21.249,105.165c-0.844,0.164-1.672,0.328-2.5,0.5
			c-17.592,3.828-31.498,8.25-41.497,13.327c-13.343,6.75-20.093,15.085-20.093,24.671c0,9.663,6.75,17.913,20.093,24.748
			c8.577,4.328,20.155,8.25,34.404,11.664c0,0.75,0,1.413,0,2.085c0,38.748,15.999,76.074,38.341,105.994l-0.172,29.326
			l-32.669,30.826c-6.406,3.094-14,6.344-23.155,9.842c-11.749,4.406-20.749,11.25-47.247,18.406l-1.844,0.5
			c-24.076,7.922-40.247,30.342-40.247,55.496v48.842h244.656H500.64v-48.842C500.64,437.972,484.392,415.552,460.299,407.63z
			 M167.412,41.747c8.405-13.749,19.327-20.421,33.498-20.421c23.904,0,48.247,18.671,48.403,18.835
			c3.921,3.086,9.343,3.086,13.249,0c6.671-5.249,28.42-18.835,48.418-18.835c14.172,0,25.077,6.672,33.498,20.421
			c11.828,19.327,17.922,51.497,18.172,95.494c-3.172,2.414-12.844,7.578-32.842,12.577c-22.249,5.672-48.498,8.836-73.824,8.836
			c-25.42,0-51.669-3.164-73.917-8.836c-19.999-4.999-29.654-10.163-32.826-12.577C149.491,93.244,155.569,61.074,167.412,41.747z
			 M85.495,174.239c1.922-2.25,11.171-10.585,49.825-18.249c0.922-0.172,1.844-0.336,2.75-0.5c1.594,1,3.171,1.914,4.593,2.75
			c6.828,3.75,16.327,7.327,27.327,10.499c14.749,4.164,45.497,11.25,85.994,11.25c40.42,0,71.168-7.086,85.916-11.25
			c11-3.172,20.5-6.749,27.327-10.499c1.422-0.836,2.999-1.75,4.577-2.75c0.922,0.164,1.844,0.328,2.75,0.5
			c38.592,7.664,47.92,15.999,49.842,18.249c-1.922,2.25-11.172,10.663-49.842,18.327c-32.904,6.499-75.745,10.085-120.57,10.085
			c-44.919,0-87.744-3.586-120.664-10.085C96.666,184.902,87.417,176.489,85.495,174.239z M139.664,215.064
			c32.903,5.75,73.495,8.922,116.32,8.922c42.748,0,83.323-3.172,116.242-8.922c-0.749,34.498-16.576,71.918-43.918,102.916
			c-12.25,13.998-25.905,25.654-39.654,33.826c-12.25,7.248-23.842,11.248-32.67,11.248c-8.921,0-20.498-4-32.748-11.248
			c-13.749-8.172-27.42-19.828-39.669-33.826C156.24,286.982,140.413,249.562,139.664,215.064z M330.308,346.634l-17.828,43.84
			l-26.076-13.498C300.903,370.476,316.058,360.054,330.308,346.634z M266.656,390.802v14.5h-21.171c0,0,0,0-0.078,0h-0.172V391.63
			l11.499-5.904L266.656,390.802z M226.408,377.382l-25.42,13.092l-16.827-41.418C197.91,361.554,212.487,371.304,226.408,377.382z
			 M32.67,490.625v-27.498c0-15.904,10.156-29.998,25.327-35.154l1.172-0.344c19.998-5.328,30.998-10.654,39.825-14.826
			c3.422-1.672,6.422-3.078,9.249-4.172c5.828-2.25,12.172-4.75,18.577-7.578l22.421,17.172l-4.172,17.248
			c-0.656,2.75-0.25,5.656,1.25,8.078l28.342,47.074H32.67z M199.488,490.624l-32.67-54.324l4.844-19.748
			c0.999-4.078-0.594-8.422-3.922-11l-22.671-17.422l23.093-21.748l17.405,42.748l33.17,81.494H199.488z M221.986,442.05
			l-12.921-31.748l14.843-7.672v13.344c0,4,2.25,7.498,5.578,9.326L221.986,442.05z M271.655,490.625h-15.671h-14.171l-8.655-21.154
			l19.076-42.842h9.078l19.17,42.42L271.655,490.625z M283.732,424.378c2.578-1.906,4.25-4.998,4.25-8.404v-14.172l16.421,8.5
			l-12.843,31.42L283.732,424.378z M294.732,490.624l6.077-14.904c1.094-1.5,1.844-3.25,2.094-5.094l24.999-61.496l17.404-42.748
			l23.093,21.748l-22.671,17.422c-3.328,2.578-4.922,6.922-3.922,11l4.844,19.748l-32.67,54.324H294.732z M338.807,490.625
			l28.342-47.074c1.5-2.422,1.906-5.328,1.25-8.078l-4.172-17.248l21.827-16.75c6.094,2.656,12.093,5.078,17.593,7.156
			c2.827,1.094,5.827,2.5,9.249,4.172c8.828,4.172,19.827,9.498,39.826,14.826l1.172,0.344c15.154,5.156,25.326,19.25,25.326,35.154
			v27.498H338.807z"/>
	</g>
</g>
<g>
</g>
<g>
</g>
<g>
</g>
<g>
</g>
<g>
</g>
<g>
</g>
<g>
</g>
<g>
</g>
<g>
</g>
<g>
</g>
<g>
</g>
<g>
</g>
<g>
</g>
<g>
</g>
<g>
</g>
</svg>
