<?xml version="1.0" encoding="utf-8"?>
<!-- Generator: Adobe Illustrator 19.1.0, SVG Export Plug-In . SVG Version: 6.00 Build 0)  -->
<svg version="1.1" xmlns="http://www.w3.org/2000/svg" xmlns:xlink="http://www.w3.org/1999/xlink" x="0px" y="0px"
	 viewBox="0 0 1024 1024" style="enable-background:new 0 0 1024 1024;" xml:space="preserve">
<style type="text/css">
	.st0{fill-rule:evenodd;clip-rule:evenodd;fill:#FFFFFF;}
	.st1{fill:#E0E0E0;}
	.st2{fill-rule:evenodd;clip-rule:evenodd;fill:#E0E0E0;}
	.st3{fill:#333333;}
	.st4{fill:#FFFFFF;}
	.st5{font-family:'HelveticaNeue-Light';}
	.st6{font-size:12px;}
</style>
<g id="mockup">
	<g>
		<g>
			<g id="Rectangle_1_copy_5">
				<g>
					<path class="st0" d="M372.7,936.3c-36.7,0-66.5-29.9-66.5-66.5V154.2c0-36.7,29.9-66.5,66.5-66.5h278.7
						c36.7,0,66.5,29.9,66.5,66.5v715.5c0,36.7-29.9,66.5-66.5,66.5H372.7z"/>
					<path class="st1" d="M651.4,89.2c35.9,0,65,29.1,65,65v715.5c0,35.9-29.1,65-65,65H372.7c-35.9,0-65-29.1-65-65V154.2
						c0-35.9,29.1-65,65-65H651.4 M651.4,86.2H372.7c-37.5,0-68,30.5-68,68v715.5c0,37.5,30.5,68,68,68h278.7c37.5,0,68-30.5,68-68
						V154.2C719.5,116.7,688.9,86.2,651.4,86.2L651.4,86.2z"/>
				</g>
			</g>
			<g id="Ellipse_2_2_">
				<g>
					<path class="st0" d="M512.5,921.5c-16.3,0-29.6-13.3-29.6-29.6s13.3-29.6,29.6-29.6c16.3,0,29.6,13.3,29.6,29.6
						S528.8,921.5,512.5,921.5z"/>
				</g>
				<g>
					<path class="st1" d="M512.5,863.7c15.5,0,28.1,12.6,28.1,28.1c0,15.5-12.6,28.1-28.1,28.1s-28.1-12.6-28.1-28.1
						C484.4,876.3,497,863.7,512.5,863.7 M512.5,860.7c-17.2,0-31.1,13.9-31.1,31.1c0,17.2,13.9,31.1,31.1,31.1s31.1-13.9,31.1-31.1
						C543.6,874.6,529.7,860.7,512.5,860.7L512.5,860.7z"/>
				</g>
			</g>
			<g id="Rectangle_4_copy_2">
				<path class="st2" d="M300.2,338.6c-1,0-1.9,0.8-1.9,1.9v49.8c0,1,0.8,1.9,1.9,1.9h2.8v-53.5H300.2z"/>
			</g>
			<g id="Rectangle_4_copy_2_">
				<path class="st2" d="M300.2,272.7c-1,0-1.9,0.8-1.9,1.9v49.8c0,1,0.8,1.9,1.9,1.9h2.8v-53.5H300.2z"/>
			</g>
			<g id="Rectangle_4">
				<path class="st2" d="M300.2,210.9c-1,0-1.9,0.8-1.9,1.9v27.2c0,1,0.8,1.9,1.9,1.9h2.8v-30.9H300.2z"/>
			</g>
			<g id="Rectangle_4_copy_4_2_">
				<path class="st2" d="M723.9,272.7h-2.8v53.5h2.8c1,0,1.9-0.8,1.9-1.9v-49.8C725.8,273.5,724.9,272.7,723.9,272.7z"/>
			</g>
			<g id="Rectangle_2">
				<path class="st2" d="M543.7,131.7h-63.4c-1.9,0-3.4,1.5-3.4,3.4v0.8c0,1.9,1.5,3.4,3.4,3.4h63.4c1.9,0,3.4-1.5,3.4-3.4v-0.8
					C547.1,133.2,545.6,131.7,543.7,131.7z"/>
			</g>
			<g id="Ellipse_1_2_">
				<circle class="st2" cx="444.2" cy="135.5" r="7.4"/>
			</g>
			<g id="Ellipse_1_copy">
				<circle class="st2" cx="512" cy="104" r="4.9"/>
			</g>
		</g>
		<path class="st3" d="M699.5,176.4h-375c-1.7,0-3,1.3-3,3v667c0,1.7,1.3,3,3,3h375c1.7,0,3-1.3,3-3v-667
			C702.5,177.8,701.2,176.4,699.5,176.4z"/>
		<g>
			<path class="st4" d="M324.5,847.9c-0.8,0-1.5-0.7-1.5-1.5v-667c0-0.8,0.7-1.5,1.5-1.5h375c0.8,0,1.5,0.7,1.5,1.5v667
				c0,0.8-0.7,1.5-1.5,1.5H324.5z"/>
			<path class="st3" d="M699.5,179.4v667h-375v-667H699.5 M699.5,176.4h-375c-1.7,0-3,1.3-3,3v667c0,1.7,1.3,3,3,3h375
				c1.7,0,3-1.3,3-3v-667C702.5,177.8,701.2,176.4,699.5,176.4L699.5,176.4z"/>
		</g>
	</g>
</g>
<g id="screen">
	<g>
		<g>
			
				<image style="overflow:visible;" width="200" height="200" id="Ga5FHD" xlink:href="C32798DAB627C4CA.jpg"  transform="matrix(1 0 0 1 416.9609 383.1205)">
			</image>
		</g>
		<g>
			<path d="M538.1,752.3c0-0.2-0.1-0.4-0.1-0.6c0-0.2-0.1-0.4-0.1-0.6c-0.1-0.2-0.1-0.4-0.2-0.6c-0.1-0.2-0.1-0.4-0.2-0.6
				c-0.1-0.2-0.2-0.4-0.3-0.6c-0.1-0.2-0.2-0.4-0.3-0.5c-0.1-0.2-0.2-0.3-0.3-0.5c-0.1-0.2-0.2-0.3-0.3-0.4
				c-0.3-0.4-0.6-0.7-0.9-1.1c-0.3-0.3-0.6-0.7-1-1c-0.3-0.3-0.7-0.6-1-0.8c-0.4-0.3-0.7-0.5-1.1-0.7c-0.4-0.2-0.8-0.4-1.2-0.6
				c-0.4-0.2-0.8-0.3-1.2-0.4c-0.4-0.1-0.8-0.2-1.2-0.3c-0.4-0.1-0.8-0.1-1.2-0.2c-0.7-0.1-1.4-0.1-2.1,0c-0.7,0-1.3,0.1-2,0.3
				s-1.3,0.3-1.9,0.6c-0.6,0.2-1.2,0.5-1.7,0.8c-0.6,0.3-1.1,0.7-1.6,1c-0.5,0.4-0.9,0.8-1.4,1.2s-0.8,0.9-1.1,1.3
				c-0.3,0.5-0.6,1-0.8,1.4c-0.3,0.6-0.5,1.2-0.7,1.8c-0.2,0.6-0.4,1.2-0.5,1.7c-0.1,0.6-0.2,1.1-0.2,1.6c0,0.5,0,1,0,1.5
				c0,0.5,0.1,1,0.2,1.5c0.1,0.5,0.2,1,0.4,1.4c0.2,0.5,0.3,0.9,0.5,1.4c0.2,0.5,0.4,0.9,0.7,1.4c0.3,0.6,0.7,1.2,1,1.8
				c0.4,0.6,0.7,1.1,1.1,1.7c0.4,0.5,0.8,1.1,1.2,1.6c0.4,0.5,0.8,1,1.2,1.5c0.4,0.5,0.8,1,1.1,1.5c0.4,0.5,0.7,1,1,1.4
				c0.3,0.5,0.6,1,0.8,1.4c0.2,0.5,0.5,1,0.6,1.5c0,0.1,0.1,0.2,0.1,0.4c0,0.1,0.1,0.3,0.1,0.4c0,0.2,0.1,0.3,0.1,0.5
				c0,0.2,0,0.4,0,0.5c0,0.2,0,0.4,0,0.6s0,0.4-0.1,0.6c0,0.2-0.1,0.4-0.2,0.6c-0.1,0.2-0.2,0.4-0.3,0.6c-0.1,0.2-0.2,0.4-0.3,0.6
				c-0.1,0.2-0.2,0.3-0.4,0.5c-0.1,0.1-0.3,0.3-0.4,0.4c-0.1,0.1-0.3,0.2-0.4,0.3c-0.1,0.1-0.3,0.2-0.4,0.3s-0.3,0.2-0.4,0.2
				c-0.1,0.1-0.3,0.1-0.4,0.2c-0.1,0.1-0.3,0.1-0.4,0.1c-0.1,0-0.2,0-0.3,0.1c-0.1,0-0.2,0-0.3,0c-0.1,0-0.2,0-0.3,0
				c-0.1,0-0.2,0-0.3,0c-0.1,0-0.2,0-0.3,0c-0.1,0-0.2,0-0.3,0c-0.1,0-0.2,0-0.2,0c-0.1,0-0.1,0-0.2,0c0,0-0.1,0-0.1,0
				c0,0-0.1,0-0.1-0.1c0,0-0.1-0.1-0.1-0.1c0,0-0.1-0.1-0.1-0.1c0,0-0.1-0.1-0.1-0.1c0-0.1,0-0.1,0-0.2c0-0.1,0-0.1,0-0.2
				c0-0.1,0-0.1,0.1-0.2c0.1-0.2,0.2-0.4,0.2-0.6c0.1-0.2,0.2-0.5,0.2-0.7c0.1-0.3,0.1-0.5,0.2-0.8c0.1-0.3,0.1-0.6,0.1-0.9
				c0-0.3,0-0.7,0-1c0-0.4,0-0.7-0.1-1.1c-0.1-0.4-0.1-0.8-0.3-1.2c-0.1-0.4-0.3-0.8-0.4-1.2c-0.2-0.5-0.5-1-0.7-1.5
				c-0.2-0.5-0.5-0.9-0.7-1.3c-0.3-0.4-0.5-0.8-0.8-1.2s-0.5-0.8-0.8-1.2c-0.3-0.4-0.6-0.8-0.8-1.2c-0.3-0.4-0.6-0.8-0.9-1.2
				c-0.3-0.4-0.6-0.8-0.9-1.2c-0.3-0.4-0.6-0.9-0.9-1.3c-0.2-0.3-0.4-0.6-0.6-0.9c-0.2-0.3-0.4-0.6-0.5-0.9
				c-0.2-0.3-0.3-0.5-0.5-0.8c-0.1-0.3-0.3-0.5-0.4-0.7s-0.3-0.5-0.4-0.7c-0.1-0.2-0.2-0.4-0.4-0.6c-0.1-0.2-0.2-0.4-0.4-0.5
				c-0.1-0.2-0.2-0.3-0.4-0.5c0,0,0,0,0-0.1c0,0,0,0,0-0.1c0,0,0,0,0-0.1c0,0,0,0,0-0.1c0,0,0-0.1,0-0.1c0,0,0,0,0-0.1
				c0,0,0,0,0-0.1c0,0,0,0,0.1-0.1c0,0,0.1,0,0.1-0.1c0,0,0.1,0,0.1-0.1c0,0,0.1-0.1,0.1-0.1c0,0,0.1-0.1,0.1-0.1
				c0,0,0.1-0.1,0.1-0.1c0,0,0.1-0.1,0.1-0.1c0,0,0.1-0.1,0.1-0.1c0-0.1,0.1-0.1,0.1-0.2c0.1-0.1,0.1-0.2,0.2-0.4
				c0-0.1,0.1-0.3,0.1-0.4c0-0.1,0-0.3,0-0.4c0-0.1,0-0.3,0-0.4c0-0.1-0.1-0.3-0.1-0.4c0-0.1-0.1-0.2-0.2-0.4
				c-0.1-0.1-0.2-0.2-0.3-0.3c-0.1-0.1-0.2-0.2-0.3-0.2c-0.1-0.1-0.2-0.1-0.3-0.1c-0.1,0-0.2-0.1-0.3-0.1c-0.1,0-0.2,0-0.3,0
				c-0.1,0-0.2,0.1-0.3,0.1c-0.1,0-0.2,0.1-0.3,0.2c-0.1,0.1-0.2,0.2-0.2,0.2c-0.1,0.1-0.1,0.2-0.2,0.3c-0.1,0.1-0.1,0.2-0.2,0.4
				c0,0.1-0.1,0.2-0.1,0.2c0,0.1,0,0.2-0.1,0.2c0,0.1,0,0.2,0,0.2c0,0.1,0,0.2,0,0.2c0,0.1,0,0.2,0,0.2c0,0.1,0,0.1,0,0.2
				c0,0.1,0,0.1,0,0.2c0,0.1,0,0.1,0,0.2c0,0,0,0,0,0.1c0,0,0,0,0,0.1c0,0,0,0,0,0.1c0,0,0,0-0.1,0c0,0,0,0-0.1,0c0,0,0,0-0.1,0
				s-0.1,0-0.1,0c0,0-0.1,0-0.1,0c-0.1,0-0.2,0-0.2-0.1c-0.1,0-0.2,0-0.2,0c-0.1,0-0.2,0-0.2,0s-0.1,0-0.2,0c-0.1,0-0.1,0-0.2,0
				c-0.1,0-0.1,0-0.2,0c-0.1,0-0.1,0-0.2,0c-0.1,0-0.1,0-0.1,0c0,0,0,0-0.1,0s0,0-0.1,0c0,0,0,0-0.1,0c0,0,0,0-0.1,0c0,0,0,0,0-0.1
				c0,0,0,0,0-0.1c0,0,0-0.1,0-0.1c0,0,0-0.1,0-0.1c0,0,0-0.1,0-0.1c0,0,0-0.1,0-0.1c0,0,0-0.1,0-0.1c0,0,0-0.1,0-0.1
				c0,0,0-0.1,0-0.2c0-0.1,0-0.1,0-0.2c0-0.1,0-0.1,0-0.2c0-0.1,0-0.1,0-0.2c0-0.1,0-0.3,0-0.4c0-0.1,0-0.2,0-0.3
				c0-0.1,0-0.2-0.1-0.3c0-0.1-0.1-0.2-0.1-0.3c0-0.1-0.1-0.2-0.2-0.2c-0.1-0.1-0.1-0.1-0.2-0.2s-0.2-0.1-0.3-0.1
				c-0.1,0-0.2-0.1-0.4-0.1c-0.1,0-0.3,0-0.4,0s-0.2,0.1-0.4,0.1c-0.1,0.1-0.2,0.1-0.3,0.2c-0.1,0.1-0.2,0.2-0.3,0.3
				c-0.1,0.1-0.2,0.2-0.2,0.3c-0.1,0.1-0.1,0.2-0.2,0.4s-0.1,0.2-0.1,0.4c0,0.1,0,0.2,0,0.4c0,0.1,0,0.2,0,0.3c0,0.1,0,0.2,0,0.2
				c0,0.1,0,0.1,0,0.2c0,0.1,0,0.1,0.1,0.2c0,0.1,0,0.1,0.1,0.2c0,0.1,0,0.1,0.1,0.2c0,0,0,0.1,0.1,0.1c0,0,0,0.1,0.1,0.1
				c0,0,0,0,0,0c0,0,0,0,0,0c0,0,0,0,0,0c0,0,0,0,0,0c0,0,0,0,0,0c0,0,0,0,0,0c0,0,0,0,0,0c0,0,0,0-0.1,0c0,0-0.1,0-0.1,0.1
				s-0.1,0-0.2,0.1c-0.1,0-0.1,0.1-0.2,0.1c-0.1,0-0.2,0.1-0.3,0.1c-0.1,0.1-0.2,0.1-0.3,0.2c-0.1,0.1-0.2,0.2-0.3,0.2
				c-0.1,0.1-0.2,0.2-0.4,0.3c-0.1,0.1-0.3,0.2-0.4,0.4c-0.1,0.1-0.3,0.2-0.4,0.3c-0.1,0.1-0.3,0.2-0.4,0.3
				c-0.1,0.1-0.2,0.2-0.3,0.2c-0.1,0.1-0.2,0.1-0.3,0.2c-0.1,0.1-0.2,0.1-0.3,0.2c-0.1,0.1-0.1,0.1-0.2,0.2
				c-0.1,0.1-0.1,0.2-0.1,0.3c0,0.1-0.1,0.2-0.1,0.3c0,0.2,0,0.4,0.1,0.6c0,0.2,0.1,0.4,0.2,0.6c0.1,0.2,0.2,0.4,0.3,0.5
				c0.1,0.2,0.3,0.3,0.4,0.5c0.2,0.1,0.3,0.3,0.5,0.4c0.2,0.1,0.3,0.2,0.5,0.4c0.2,0.1,0.3,0.2,0.5,0.3c0.1,0.1,0.3,0.2,0.4,0.2
				c0.1,0.1,0.2,0.1,0.3,0.2c0.1,0.1,0.2,0.2,0.3,0.2c0.1,0.1,0.2,0.2,0.3,0.3c0.1,0.1,0.2,0.2,0.3,0.3s0.2,0.2,0.2,0.3
				c0.1,0.1,0.1,0.2,0.2,0.3c0.1,0.1,0.1,0.2,0.2,0.3c0.1,0.1,0.1,0.2,0.2,0.3c0.1,0.2,0.1,0.3,0.2,0.5c0.1,0.2,0.1,0.3,0.1,0.5
				c0,0.1,0.1,0.3,0.1,0.4c0,0.1,0.1,0.3,0.1,0.4c0,0.1,0,0.3,0,0.4c0,0.1,0,0.3,0,0.4c0,0.1,0,0.3,0,0.4c0,0.1,0,0.3,0,0.4
				c0,0.2-0.1,0.5-0.1,0.7c0,0.2-0.1,0.4-0.1,0.7c0,0.2-0.1,0.4-0.2,0.6c-0.1,0.2-0.1,0.4-0.2,0.6c-0.1,0.2-0.1,0.4-0.2,0.6
				c-0.1,0.2-0.1,0.4-0.2,0.6c-0.1,0.2-0.1,0.4-0.2,0.6c-0.1,0.2-0.1,0.4-0.2,0.6c-0.1,0.2-0.1,0.3-0.2,0.5
				c-0.1,0.2-0.1,0.3-0.2,0.5c-0.1,0.2-0.1,0.3-0.2,0.5s-0.1,0.3-0.2,0.4c-0.1,0.1-0.1,0.3-0.2,0.4c-0.1,0.1-0.1,0.3-0.2,0.4
				c-0.1,0.1-0.1,0.3-0.2,0.4c-0.1,0.1-0.1,0.2-0.2,0.4c-0.1,0.1-0.2,0.3-0.2,0.4c-0.1,0.1-0.2,0.3-0.2,0.4
				c-0.1,0.1-0.1,0.2-0.2,0.4c-0.1,0.1-0.1,0.2-0.2,0.3c-0.1,0.1-0.1,0.2-0.2,0.3c-0.1,0.1-0.1,0.2-0.2,0.3
				c-0.1,0.1-0.1,0.2-0.1,0.2c0,0.1-0.1,0.1-0.1,0.2c0,0.1-0.1,0.2-0.1,0.2c0,0.1,0,0.2-0.1,0.2c0,0.1,0,0.2,0,0.2
				c0,0.1,0,0.1,0,0.2c0,0.1,0,0.1,0.1,0.2c0,0.1,0.1,0.1,0.1,0.2c0,0.1,0.1,0.1,0.1,0.2c0,0,0.1,0.1,0.2,0.1c0,0,0.1,0.1,0.1,0.1
				c0,0,0.1,0,0.1,0.1c0.1,0,0.1,0,0.2,0c0.1,0,0.1,0,0.2,0c0.1,0,0.1,0,0.2,0c0.1,0,0.1,0,0.2,0s0.1,0,0.2-0.1c0.1,0,0.1,0,0.2-0.1
				c0.3-0.1,0.5-0.3,0.7-0.4s0.5-0.3,0.7-0.4c0.2-0.1,0.4-0.3,0.6-0.4c0.2-0.1,0.4-0.2,0.5-0.4c0.2-0.1,0.3-0.2,0.5-0.3
				c0.1-0.1,0.3-0.2,0.4-0.3c0.1-0.1,0.2-0.2,0.3-0.2c0.1-0.1,0.2-0.1,0.3-0.2c0.1,0,0.2-0.1,0.2-0.1c0.1,0,0.2-0.1,0.2-0.1
				c0.1,0,0.1,0,0.2,0c0.1,0,0.1,0,0.2,0c0.1,0,0.1,0,0.2,0c0.1,0,0.1,0,0.2,0.1c0.1,0,0.1,0.1,0.2,0.1c0,0,0.1,0.1,0.1,0.1
				c0,0.1,0.1,0.1,0.1,0.2c0,0.1,0.1,0.1,0.1,0.2c0,0.1,0,0.1,0.1,0.2c0,0.1,0,0.1,0,0.2c0,0.1,0,0.1,0,0.2s0,0.1-0.1,0.2
				c0,0.1-0.1,0.1-0.1,0.2c-0.1,0.1-0.1,0.1-0.2,0.2c-0.1,0.1-0.3,0.3-0.4,0.4c-0.2,0.1-0.3,0.3-0.5,0.4c-0.2,0.1-0.4,0.3-0.6,0.4
				c-0.2,0.1-0.4,0.3-0.6,0.4c-0.2,0.1-0.4,0.3-0.6,0.4c-0.2,0.1-0.4,0.2-0.7,0.4c-0.2,0.1-0.4,0.2-0.7,0.3
				c-0.2,0.1-0.4,0.2-0.6,0.3c-0.1,0-0.2,0.1-0.3,0.1c-0.1,0-0.2,0.1-0.3,0.1c-0.1,0-0.2,0.1-0.3,0.1c-0.1,0-0.2,0.1-0.3,0.1
				c-0.1,0-0.2,0.1-0.3,0.1c-0.1,0-0.2,0.1-0.3,0.1c-0.1,0-0.2,0-0.2,0.1c-0.1,0-0.1,0-0.2,0c-0.1,0-0.2,0-0.3,0.1
				c-0.1,0-0.2,0.1-0.2,0.1c-0.1,0-0.1,0.1-0.2,0.1c-0.1,0.1-0.1,0.1-0.1,0.2c0,0.1-0.1,0.1-0.1,0.2c0,0.1,0,0.1-0.1,0.2
				c0,0.1,0,0.1,0,0.2c0,0.1,0,0.1,0,0.2c0,0.1,0,0.1,0,0.2c0,0.1,0.1,0.1,0.1,0.2c0,0.1,0.1,0.1,0.1,0.2c0,0.1,0.1,0.1,0.2,0.1
				c0.1,0,0.1,0.1,0.2,0.1c0.1,0,0.1,0.1,0.2,0.1s0.2,0.1,0.2,0.1c0.1,0,0.2,0,0.3,0c0.2,0,0.4,0,0.7,0.1c0.2,0,0.5,0,0.8,0.1
				c0.3,0,0.6,0,0.9,0c0.3,0,0.6,0,1,0c0.3,0,0.7,0,1,0c0.3,0,0.7,0,1.1,0c0.4,0,0.7,0,1.1,0s0.7,0,1.1-0.1c0.3,0,0.7-0.1,1.1-0.1
				c0.4,0,0.8-0.1,1.1-0.1c0.4-0.1,0.8-0.1,1.2-0.2c0.4-0.1,0.8-0.1,1.2-0.2c0.4-0.1,0.8-0.2,1.1-0.3c0.4-0.1,0.7-0.2,1-0.3
				c0.3-0.1,0.6-0.2,0.9-0.3c0.3-0.1,0.5-0.2,0.8-0.3c0.1,0,0.1-0.1,0.2-0.1c0.1,0,0.1-0.1,0.2-0.1s0.1,0,0.1-0.1c0,0,0.1,0,0.1-0.1
				c0,0,0.1,0,0.1-0.1c0,0,0.1,0,0.1-0.1c0,0,0.1,0,0.1,0c0,0,0.1,0,0.1,0c0,0,0.1,0,0.1,0c0,0,0,0,0.1,0c0,0,0,0,0.1,0
				c0,0,0,0,0.1,0c0,0,0,0,0.1,0c0,0,0,0,0.1,0c0,0,0,0,0.1,0c0,0,0,0,0.1,0c0.2,0.1,0.5,0.2,0.7,0.3s0.5,0.2,0.7,0.2
				c0.2,0.1,0.5,0.1,0.7,0.2s0.5,0.1,0.7,0.2c0.2,0.1,0.5,0.1,0.7,0.1c0.2,0,0.5,0.1,0.7,0.1c0.2,0,0.5,0,0.7,0.1c0.2,0,0.5,0,0.7,0
				c0.8,0,1.6-0.1,2.4-0.2c0.8-0.2,1.5-0.4,2.2-0.7c0.7-0.3,1.4-0.7,2-1.1c0.6-0.4,1.2-0.9,1.8-1.5c0.5-0.5,1-1.1,1.5-1.8
				c0.4-0.6,0.8-1.3,1.1-2c0.3-0.7,0.5-1.5,0.7-2.2c0.2-0.8,0.2-1.6,0.2-2.4c0-0.4,0-0.9-0.1-1.4c-0.1-0.5-0.1-1-0.3-1.5
				c-0.1-0.5-0.3-1-0.4-1.6c-0.2-0.5-0.4-1.1-0.7-1.6s-0.6-1.1-0.9-1.7c-0.3-0.6-0.7-1.2-1.2-1.8c-0.4-0.6-0.9-1.2-1.4-1.9
				c-0.5-0.6-1.1-1.3-1.7-2c-0.1-0.1-0.3-0.3-0.4-0.4c-0.1-0.1-0.3-0.3-0.4-0.4c-0.1-0.1-0.2-0.3-0.3-0.4c-0.1-0.1-0.2-0.3-0.3-0.4
				c-0.1-0.1-0.2-0.3-0.2-0.4c-0.1-0.1-0.1-0.3-0.2-0.4c0-0.1-0.1-0.3-0.1-0.4c0-0.1,0-0.2,0-0.4c0-0.1,0-0.1,0-0.2
				c0-0.1,0-0.1,0-0.2c0-0.1,0-0.1,0-0.2c0-0.1,0-0.1,0.1-0.2c0-0.1,0-0.1,0.1-0.1c0,0,0.1-0.1,0.1-0.1c0,0,0.1-0.1,0.1-0.1
				c0,0,0.1-0.1,0.1-0.1c0.1-0.1,0.1-0.1,0.2-0.1c0.1,0,0.1-0.1,0.2-0.1c0.1,0,0.2-0.1,0.2-0.1c0.1,0,0.2,0,0.3,0c0.1,0,0.2,0,0.3,0
				c0.1,0,0.2,0,0.3,0c0.1,0,0.2,0.1,0.3,0.1c0.1,0,0.2,0.1,0.3,0.1c0,0,0,0,0.1,0c0,0,0,0,0.1,0.1c0,0,0,0,0.1,0.1c0,0,0,0,0.1,0.1
				c0,0,0,0,0.1,0.1c0,0,0,0.1,0.1,0.1c0,0,0,0.1,0.1,0.1c0,0,0,0.1,0.1,0.1c0,0.1,0.1,0.1,0.1,0.2s0.1,0.1,0.1,0.2
				c0,0.1,0.1,0.1,0.1,0.2c0,0.1,0.1,0.1,0.1,0.2c0,0.1,0.1,0.1,0.1,0.2c0,0.1,0.1,0.1,0.1,0.2c0,0.1,0.1,0.1,0.1,0.2
				c0,0.1,0.1,0.1,0.1,0.2c0.2,0.2,0.4,0.4,0.7,0.6c0.2,0.2,0.5,0.3,0.8,0.5c0.3,0.1,0.5,0.3,0.8,0.4c0.3,0.1,0.6,0.2,0.9,0.2
				c0.3,0.1,0.6,0.1,0.9,0.1c0.3,0,0.6,0,0.9,0c0.3,0,0.6-0.1,0.9-0.2c0.3-0.1,0.6-0.2,0.9-0.3c0.3-0.1,0.5-0.2,0.8-0.4
				c0.2-0.2,0.5-0.3,0.7-0.5c0.2-0.2,0.4-0.4,0.6-0.6c0.2-0.2,0.4-0.5,0.5-0.7c0.2-0.3,0.3-0.5,0.4-0.8c0.1-0.3,0.2-0.6,0.3-0.9
				s0.1-0.6,0.2-0.9S538.1,752.7,538.1,752.3"/>
		</g>
		<g>
			<path d="M464.4,611.7c0,1.9-1.2,3.4-3,4c2.3,0.6,3.6,2.5,3.6,4.7c0,3.8-3.5,4.8-6.7,4.8c-2.7,0-4.9,0-7.6,0v-18.5
				c2.7,0,4.9,0,7.6,0C461.5,606.7,464.4,608.2,464.4,611.7z M452.2,615.1h6.3c2.2,0,4.5-0.7,4.5-3.3c0-2.7-2.4-3.8-4.7-3.8h-6.2
				V615.1z M452.2,623.8h6.2c2.3,0,5.3-0.6,5.3-3.5c0-2.9-2.6-3.9-5.1-3.9c-2.2,0-4.1,0-6.3,0V623.8z"/>
			<path d="M470.2,607.9c0,1.4-2.1,1.4-2.1,0C468.1,606.5,470.2,606.5,470.2,607.9z M468.5,612.1v13.1h1.3v-13.1H468.5z"/>
			<path d="M476.9,608.2v3.9h4.4v1.1h-4.4v8c0,1.8,0.4,3,2.4,3c0.6,0,1.3-0.2,2-0.5l0.4,1.1c-0.8,0.4-1.6,0.7-2.5,0.7
				c-2.8,0-3.7-1.6-3.7-4.2v-8h-2.8v-1.1h2.8v-3.8L476.9,608.2z"/>
			<path d="M494.5,623.4c-1.3,1.3-3,2-4.8,2c-3.7,0-6.7-2.6-6.7-6.7c0-4.1,2.9-6.7,6.7-6.7c1.7,0,3.4,0.7,4.8,2l-0.8,0.8
				c-1.1-1.1-2.5-1.6-3.9-1.6c-3,0-5.4,2-5.4,5.5c0,3.5,2.5,5.5,5.4,5.5c1.4,0,2.8-0.6,3.9-1.6L494.5,623.4z"/>
			<path d="M496.4,618.7c0-4.2,3-6.8,6.6-6.8c3.7,0,6.6,2.6,6.6,6.8c0,4.2-3,6.7-6.6,6.7C499.4,625.4,496.4,622.9,496.4,618.7z
				 M508.4,618.7c0-3.4-2.4-5.6-5.4-5.6s-5.4,2.2-5.4,5.6c0,3.4,2.4,5.4,5.4,5.4S508.4,622.1,508.4,618.7z"/>
			<path d="M514.8,607.9c0,1.4-2.1,1.4-2.1,0C512.8,606.5,514.8,606.5,514.8,607.9z M513.1,612.1v13.1h1.3v-13.1H513.1z"/>
			<path d="M520,612.1v2.3c1-1.8,2.8-2.5,4.7-2.6c3.5,0,5.9,2.1,5.9,5.8v7.5h-1.3v-7.5c0-3-1.8-4.5-4.7-4.5c-2.7,0-4.6,2.1-4.6,4.8
				v7.3h-1.3v-13.1H520z"/>
			<path d="M543.9,608.2v3.9h4.4v1.1h-4.4v8c0,1.8,0.4,3,2.4,3c0.6,0,1.3-0.2,2-0.5l0.4,1.1c-0.8,0.4-1.6,0.7-2.5,0.7
				c-2.8,0-3.7-1.6-3.7-4.2v-8h-2.8v-1.1h2.8v-3.8L543.9,608.2z"/>
			<path d="M552.8,607.9c0,1.4-2.1,1.4-2.1,0C550.7,606.5,552.8,606.5,552.8,607.9z M551.1,612.1v13.1h1.3v-13.1H551.1z"/>
			<path d="M556.6,631.5v-19.4h1.3v3.1c1-2,3.1-3.3,5.7-3.3c3.5,0.1,6.3,2.5,6.3,6.7c0,4.4-3,6.8-6.6,6.8c-2.2,0-4.3-1.1-5.4-3.3
				v9.3H556.6z M568.6,618.7c0-3.7-2.4-5.5-5.3-5.5c-3,0-5.3,2.3-5.3,5.5c0,3.2,2.3,5.5,5.3,5.5
				C566.2,624.2,568.6,622.3,568.6,618.7z"/>
			<path d="M582,614.5c-1.3-1.2-2.6-1.4-4.1-1.4c-2,0-4,0.7-3.9,2.4c0.1,1.7,2.3,2.1,4,2.4c2.3,0.4,5.5,0.8,5.4,3.8
				c-0.1,2.9-3.1,3.6-5.4,3.6s-4.6-0.9-5.7-2.6l1-0.8c1.1,1.6,3,2.2,4.8,2.2c1.6,0,4-0.4,4.1-2.5c0.1-1.9-2.1-2.2-4.3-2.6
				c-2.5-0.4-5-0.9-5.1-3.5c0-2.6,2.5-3.7,5.2-3.6c1.9,0,3.6,0.5,4.9,1.7L582,614.5z"/>
		</g>
		<text transform="matrix(1 0 0 1 392.0834 651.965)" class="st1 st5 st6">1DARAMfSNtwZ8H36NFqopRryQgqTCr6b9V</text>
		<text transform="matrix(1 0 0 1 430.3153 673.811)" class="st1 st5 st6">http://daramghaus.com/bitcoin</text>
		<g>
			<path d="M356.2,258.2c0,1.8-2.7,1.8-2.7,0C353.4,256.4,356.2,256.4,356.2,258.2z M353.9,263.7v17.1h1.7v-17.1H353.9z"/>
			<path d="M363.7,272.5v8.4h-1.9v-24.2c3.5,0,7.1,0,10.6,0c10.5,0,10.5,15.8,0,15.8H363.7z M363.7,258.4v12.4h8.7
				c8,0,8-12.4,0-12.4H363.7z"/>
			<path d="M386,256.6v10.3c1.4-2.5,3.8-3.4,6.1-3.4c4.8,0,7.2,3.1,7.2,7.5v9.8h-1.7V271c0-3.5-1.7-5.9-5.5-5.9
				c-3.6,0-6.1,2.8-6.1,6.3v9.4h-1.7v-24.2H386z"/>
			<path d="M403.5,272.4c0-5.4,3.9-8.9,8.7-8.9c4.8,0,8.7,3.5,8.7,8.9c0,5.4-3.9,8.7-8.7,8.7C407.4,281.1,403.5,277.8,403.5,272.4z
				 M419.2,272.4c0-4.4-3.1-7.3-7-7.3c-3.9,0-7,2.9-7,7.3s3.1,7.1,7,7.1C416.1,279.4,419.2,276.8,419.2,272.4z"/>
			<path d="M427,263.8v3c1.3-2.3,3.7-3.3,6.1-3.4c4.6,0,7.7,2.8,7.7,7.5v9.8h-1.7V271c0-3.9-2.4-5.9-6.1-5.9c-3.5,0-6,2.7-6,6.2v9.5
				h-1.7v-17.1H427z"/>
			<path d="M445,272.3c0-5.1,3.9-8.8,8.7-8.8c4.8,0,9.1,2.9,8.4,9.6h-15.4c0.3,4,3.4,6.4,6.9,6.4c2.2,0,4.9-0.9,6.1-2.6l1.2,1
				c-1.7,2.2-4.6,3.3-7.4,3.3C448.9,281.1,445,277.7,445,272.3z M460.6,271.6c0-4.2-2.8-6.6-6.9-6.6c-3.5,0-6.6,2.4-6.9,6.6H460.6z"
				/>
			<path d="M477.4,269.6c1.9-2.8,4.7-3.4,7.7-3.4c4.6,0,9.4,2.1,9.4,7.5c0,5.5-4.9,7.5-9.5,7.5c-4.6,0-9.5-2.1-9.5-7.5V263
				c0-4.6,4.6-6.7,9.2-6.7c4.8,0,8.9,2,9.2,6.1h-1.9c-0.2-2.9-3.4-4.5-7.4-4.5c-3.7,0-7.4,1.7-7.4,5V269.6z M492.7,273.6
				c0-4-4.1-5.8-7.6-5.8c-3.5,0-7.7,1.8-7.7,5.7c0,4.4,4.2,5.7,7.7,5.7C488.6,279.3,492.7,278.1,492.7,273.6z"/>
			<path d="M530.1,259.3l-9.3,14.2h-0.6l-9.3-14.2v21.5H509v-24.2c0.9,0,1.3,0,2.2,0l9.3,14.1l9.2-14.1h2.3v24.2h-1.8V259.3z"/>
			<path d="M536.7,272.4c0-5.4,3.9-8.9,8.7-8.9c4.8,0,8.7,3.5,8.7,8.9c0,5.4-3.9,8.7-8.7,8.7C540.5,281.1,536.7,277.8,536.7,272.4z
				 M552.4,272.4c0-4.4-3.1-7.3-7-7.3c-3.9,0-7,2.9-7,7.3s3.1,7.1,7,7.1C549.2,279.4,552.4,276.8,552.4,272.4z"/>
			<path d="M572.3,278.5c-1.7,1.7-4,2.6-6.2,2.6c-4.8,0-8.8-3.4-8.8-8.8c0-5.4,3.8-8.8,8.8-8.8c2.2,0,4.5,0.9,6.2,2.6l-1.1,1.1
				c-1.4-1.4-3.3-2-5.1-2c-3.9,0-7.1,2.6-7.1,7.2c0,4.6,3.2,7.2,7.1,7.2c1.8,0,3.7-0.7,5.1-2.1L572.3,278.5z"/>
			<path d="M578.1,256.6v14.6l8-7.5h2.2v0.1l-8.6,8l9.6,8.9v0.1h-2.1l-9.2-8.4v8.4h-1.7v-24.2H578.1z"/>
			<path d="M606,280.8v-3.1c-1.3,2.3-3.7,3.3-6.1,3.4c-4.6,0-7.7-2.8-7.7-7.5v-9.8h1.7v9.8c0,3.9,2.4,5.9,6.1,5.9c3.5,0,6-2.7,6-6.2
				v-9.5h1.7v17.1H606z"/>
			<path d="M613.3,289.1v-25.3h1.7v4c1.3-2.6,4.1-4.3,7.4-4.3c4.6,0.2,8.3,3.3,8.3,8.8c0,5.7-3.9,8.8-8.7,8.8c-2.9,0-5.6-1.4-7-4.2
				v12.2H613.3z M628.9,272.3c0-4.8-3.1-7.2-7-7.2c-4,0-6.9,3-6.9,7.2c0,4.2,3,7.2,6.9,7.2C625.8,279.5,628.9,277.1,628.9,272.3z"/>
			<path d="M663.1,280.8l-2.7-5.9H646l-2.6,5.9h-2l10.8-24.2h2l10.8,24.2H663.1z M659.7,273.2l-6.5-14.7l-6.5,14.7H659.7z"/>
			<path d="M669.4,280.8v-24.2h1.8v24.2H669.4z"/>
		</g>
	</g>
</g>
</svg>
