<?xml version="1.0" encoding="utf-8"?>
<!-- Generator: Adobe Illustrator 19.1.0, SVG Export Plug-In . SVG Version: 6.00 Build 0)  -->
<svg version="1.1" id="screen" xmlns="http://www.w3.org/2000/svg" xmlns:xlink="http://www.w3.org/1999/xlink" x="0px" y="0px"
	 viewBox="0 0 727.5 1024" style="enable-background:new 0 0 727.5 1024;" xml:space="preserve">
<style type="text/css">
	.st0{fill-rule:evenodd;clip-rule:evenodd;fill:#FFFFFF;}
	.st1{fill:#E0E0E0;}
	.st2{fill-rule:evenodd;clip-rule:evenodd;fill:#E0E0E0;}
	.st3{fill:#333333;}
	.st4{display:none;}
	.st5{display:inline;}
	.st6{display:inline;fill:#E0E0E0;}
	.st7{font-family:'HelveticaNeue-Light';}
	.st8{font-size:12.0591px;}
</style>
<g id="mockup">
	<g>
		<g>
			<g id="Rectangle_1_copy_5">
				<g>
					<path class="st0" d="M221.5,936.3c-36.7,0-66.5-29.9-66.5-66.5V154.2c0-36.7,29.9-66.5,66.5-66.5h278.7
						c36.7,0,66.5,29.9,66.5,66.5v715.5c0,36.7-29.9,66.5-66.5,66.5H221.5z"/>
					<path class="st1" d="M500.2,89.2c35.9,0,65,29.1,65,65v715.5c0,35.9-29.1,65-65,65H221.5c-35.9,0-65-29.1-65-65V154.2
						c0-35.9,29.1-65,65-65H500.2 M500.2,86.2H221.5c-37.5,0-68,30.5-68,68v715.5c0,37.5,30.5,68,68,68h278.7c37.5,0,68-30.5,68-68
						V154.2C568.3,116.7,537.8,86.2,500.2,86.2L500.2,86.2z"/>
				</g>
			</g>
			<g id="Ellipse_2_2_">
				<g>
					<path class="st0" d="M361.3,921.5c-16.3,0-29.6-13.3-29.6-29.6s13.3-29.6,29.6-29.6c16.3,0,29.6,13.3,29.6,29.6
						S377.7,921.5,361.3,921.5z"/>
				</g>
				<g>
					<path class="st1" d="M361.3,863.7c15.5,0,28.1,12.6,28.1,28.1c0,15.5-12.6,28.1-28.1,28.1s-28.1-12.6-28.1-28.1
						C333.2,876.3,345.8,863.7,361.3,863.7 M361.3,860.7c-17.2,0-31.1,13.9-31.1,31.1c0,17.2,13.9,31.1,31.1,31.1
						s31.1-13.9,31.1-31.1C392.5,874.6,378.5,860.7,361.3,860.7L361.3,860.7z"/>
				</g>
			</g>
			<g id="Rectangle_4_copy_2">
				<path class="st2" d="M149,338.6c-1,0-1.9,0.8-1.9,1.9v49.8c0,1,0.8,1.9,1.9,1.9h2.8v-53.5H149z"/>
			</g>
			<g id="Rectangle_4_copy_2_">
				<path class="st2" d="M149,272.7c-1,0-1.9,0.8-1.9,1.9v49.8c0,1,0.8,1.9,1.9,1.9h2.8v-53.5H149z"/>
			</g>
			<g id="Rectangle_4">
				<path class="st2" d="M149,210.9c-1,0-1.9,0.8-1.9,1.9v27.2c0,1,0.8,1.9,1.9,1.9h2.8v-30.9H149z"/>
			</g>
			<g id="Rectangle_4_copy_4_2_">
				<path class="st2" d="M572.8,272.7H570v53.5h2.8c1,0,1.9-0.8,1.9-1.9v-49.8C574.6,273.5,573.8,272.7,572.8,272.7z"/>
			</g>
			<g id="Rectangle_2">
				<path class="st2" d="M392.6,131.7h-63.4c-1.9,0-3.4,1.5-3.4,3.4v0.8c0,1.9,1.5,3.4,3.4,3.4h63.4c1.9,0,3.4-1.5,3.4-3.4v-0.8
					C395.9,133.2,394.4,131.7,392.6,131.7z"/>
			</g>
			<g id="Ellipse_1_2_">
				<circle class="st2" cx="293" cy="135.5" r="7.4"/>
			</g>
			<g id="Ellipse_1_copy">
				<circle class="st2" cx="360.9" cy="104" r="4.9"/>
			</g>
		</g>
		<path class="st3" d="M548.4,176.4h-375c-1.7,0-3,1.3-3,3v667c0,1.7,1.3,3,3,3h375c1.7,0,3-1.3,3-3v-667
			C551.4,177.8,550,176.4,548.4,176.4z"/>
		<g id="BSl3RU.tif">
			
				<image style="overflow:visible;" width="752" height="1336" id="Layer_0_1_" xlink:href="D7E1DC207024548B.png"  transform="matrix(0.5027 0 0 0.503 170.7826 178)">
			</image>
		</g>
		<g id="k1U6Bg.tif">
			
				<image style="overflow:visible;" width="750" height="1334" id="Layer_0_2_" xlink:href="D7E1DC2070245489.png"  transform="matrix(0.504 0 0 0.5022 172.4736 178.1232)">
			</image>
		</g>
		<g>
			<path class="st3" d="M548.4,179.4v667h-375v-667H548.4 M548.4,176.4h-375c-1.7,0-3,1.3-3,3v667c0,1.7,1.3,3,3,3h375
				c1.7,0,3-1.3,3-3v-667C551.4,177.8,550,176.4,548.4,176.4L548.4,176.4z"/>
		</g>
	</g>
	<g id="ovgfO1.tif" class="st4">
		
			<image style="display:inline;overflow:visible;" width="748" height="1334" id="Layer_0_3_" xlink:href="D7E1DC207024548F.png"  transform="matrix(0.5107 0 0 0.5107 169.5486 170.4893)">
		</image>
	</g>
</g>
<g class="st4">
	<g class="st5">
		
			<image style="overflow:visible;" width="200" height="200" id="Ga5FHD" xlink:href="D7E1DC2070245489.jpg"  transform="matrix(1.0133 0 0 1.0049 264.0388 383.1229)">
		</image>
	</g>
	<g class="st5">
		<path d="M386.8,754.1c0-0.2-0.1-0.4-0.1-0.6c0-0.2-0.1-0.4-0.2-0.6c-0.1-0.2-0.1-0.4-0.2-0.6c-0.1-0.2-0.1-0.4-0.2-0.6
			c-0.1-0.2-0.2-0.4-0.3-0.6c-0.1-0.2-0.2-0.4-0.3-0.5c-0.1-0.2-0.2-0.3-0.3-0.5c-0.1-0.2-0.2-0.3-0.3-0.4c-0.3-0.4-0.6-0.8-0.9-1.1
			s-0.6-0.7-1-1c-0.3-0.3-0.7-0.6-1.1-0.8c-0.4-0.3-0.7-0.5-1.1-0.7c-0.4-0.2-0.8-0.4-1.2-0.6c-0.4-0.2-0.8-0.3-1.2-0.4
			c-0.4-0.1-0.8-0.2-1.2-0.3c-0.4-0.1-0.8-0.1-1.2-0.2c-0.7-0.1-1.4-0.1-2.1,0c-0.7,0-1.4,0.1-2,0.3c-0.7,0.1-1.3,0.3-1.9,0.6
			c-0.6,0.2-1.2,0.5-1.8,0.8c-0.6,0.3-1.1,0.7-1.6,1c-0.5,0.4-1,0.8-1.4,1.2c-0.4,0.4-0.8,0.9-1.1,1.3c-0.3,0.5-0.6,1-0.8,1.5
			c-0.3,0.6-0.5,1.2-0.7,1.8c-0.2,0.6-0.4,1.2-0.5,1.7c-0.1,0.6-0.2,1.1-0.2,1.6c0,0.5,0,1,0,1.5c0,0.5,0.1,1,0.2,1.5
			c0.1,0.5,0.2,1,0.4,1.4c0.2,0.5,0.3,0.9,0.6,1.4s0.4,0.9,0.7,1.4c0.3,0.6,0.7,1.2,1.1,1.8c0.4,0.6,0.8,1.1,1.2,1.7
			c0.4,0.5,0.8,1.1,1.2,1.6c0.4,0.5,0.8,1,1.2,1.5c0.4,0.5,0.8,1,1.1,1.5c0.4,0.5,0.7,1,1,1.4c0.3,0.5,0.6,1,0.9,1.5
			c0.3,0.5,0.5,1,0.6,1.5c0,0.1,0.1,0.2,0.1,0.4c0,0.1,0.1,0.3,0.1,0.4s0.1,0.3,0.1,0.5c0,0.2,0,0.4,0,0.5c0,0.2,0,0.4,0,0.6
			c0,0.2,0,0.4-0.1,0.6c0,0.2-0.1,0.4-0.2,0.6c-0.1,0.2-0.2,0.4-0.3,0.6c-0.1,0.2-0.2,0.4-0.3,0.6c-0.1,0.2-0.2,0.3-0.4,0.5
			c-0.1,0.1-0.3,0.3-0.4,0.4c-0.1,0.1-0.3,0.2-0.4,0.3c-0.1,0.1-0.3,0.2-0.4,0.3c-0.1,0.1-0.3,0.2-0.4,0.2c-0.1,0.1-0.3,0.1-0.4,0.2
			c-0.1,0.1-0.3,0.1-0.4,0.1c-0.1,0-0.2,0-0.3,0.1c-0.1,0-0.2,0-0.3,0c-0.1,0-0.2,0-0.3,0c-0.1,0-0.2,0-0.3,0c-0.1,0-0.2,0-0.3,0
			c-0.1,0-0.2,0-0.3,0c-0.1,0-0.2,0-0.2,0c-0.1,0-0.1,0-0.2,0c0,0-0.1,0-0.1,0c0,0-0.1,0-0.1-0.1c0,0-0.1-0.1-0.1-0.1
			c0,0-0.1-0.1-0.1-0.1c0,0-0.1-0.1-0.1-0.1s0-0.1,0-0.2c0-0.1,0-0.1,0-0.2c0-0.1,0-0.1,0.1-0.2c0.1-0.2,0.2-0.4,0.3-0.6
			c0.1-0.2,0.2-0.5,0.2-0.8c0.1-0.3,0.1-0.6,0.2-0.9c0.1-0.3,0.1-0.6,0.1-0.9c0-0.3,0-0.7,0-1c0-0.4,0-0.7-0.1-1.1
			c-0.1-0.4-0.1-0.8-0.3-1.2c-0.1-0.4-0.3-0.8-0.4-1.2c-0.2-0.5-0.5-1-0.7-1.5c-0.2-0.5-0.5-0.9-0.7-1.4c-0.3-0.4-0.5-0.8-0.8-1.3
			c-0.3-0.4-0.5-0.8-0.8-1.2c-0.3-0.4-0.6-0.8-0.9-1.2c-0.3-0.4-0.6-0.8-0.9-1.2c-0.3-0.4-0.6-0.8-0.9-1.2c-0.3-0.4-0.6-0.9-0.9-1.3
			c-0.2-0.3-0.4-0.6-0.6-0.9s-0.4-0.6-0.5-0.9c-0.2-0.3-0.3-0.5-0.5-0.8c-0.1-0.3-0.3-0.5-0.4-0.7c-0.1-0.2-0.3-0.5-0.4-0.7
			c-0.1-0.2-0.3-0.4-0.4-0.6c-0.1-0.2-0.2-0.4-0.4-0.5c-0.1-0.2-0.3-0.3-0.4-0.5c0,0,0,0,0-0.1c0,0,0,0,0-0.1c0,0,0,0,0-0.1
			c0,0,0-0.1,0-0.1c0,0,0-0.1,0-0.1c0,0,0,0,0-0.1c0,0,0,0,0-0.1c0,0,0,0,0.1-0.1c0,0,0.1,0,0.1-0.1c0,0,0.1,0,0.1-0.1
			c0,0,0.1-0.1,0.1-0.1c0,0,0.1-0.1,0.1-0.1c0,0,0.1-0.1,0.1-0.1c0,0,0.1-0.1,0.1-0.1c0,0,0.1-0.1,0.1-0.1c0-0.1,0.1-0.1,0.1-0.2
			c0.1-0.1,0.1-0.2,0.2-0.4c0-0.1,0.1-0.3,0.1-0.4c0-0.1,0-0.3,0-0.4c0-0.1,0-0.3,0-0.4c0-0.1-0.1-0.3-0.1-0.4
			c0-0.1-0.1-0.2-0.2-0.4c-0.1-0.1-0.2-0.2-0.3-0.3c-0.1-0.1-0.2-0.2-0.3-0.2c-0.1-0.1-0.2-0.1-0.3-0.1c-0.1,0-0.2-0.1-0.3-0.1
			c-0.1,0-0.2,0-0.3,0c-0.1,0-0.2,0.1-0.3,0.1c-0.1,0-0.2,0.1-0.3,0.2c-0.1,0.1-0.2,0.2-0.3,0.2c-0.1,0.1-0.1,0.2-0.2,0.3
			c-0.1,0.1-0.1,0.2-0.2,0.4c0,0.1-0.1,0.2-0.1,0.2c0,0.1,0,0.2-0.1,0.2c0,0.1,0,0.2,0,0.2c0,0.1,0,0.2,0,0.2c0,0.1,0,0.2,0,0.2
			c0,0.1,0,0.1,0,0.2c0,0.1,0,0.1,0,0.2c0,0.1,0,0.1,0,0.2c0,0,0,0,0,0.1c0,0,0,0,0,0.1c0,0,0,0,0,0.1c0,0,0,0-0.1,0c0,0,0,0-0.1,0
			c0,0,0,0-0.1,0c0,0-0.1,0-0.1,0c0,0-0.1,0-0.1,0c-0.1,0-0.2,0-0.2-0.1c-0.1,0-0.2,0-0.2,0c-0.1,0-0.2,0-0.2,0s-0.1,0-0.2,0
			c-0.1,0-0.1,0-0.2,0c-0.1,0-0.1,0-0.2,0c-0.1,0-0.1,0-0.2,0c-0.1,0-0.1,0-0.1,0c0,0,0,0-0.1,0c0,0,0,0-0.1,0c0,0,0,0-0.1,0
			c0,0,0,0-0.1-0.1s0,0,0-0.1c0,0,0-0.1,0-0.1c0,0,0-0.1,0-0.1c0,0,0-0.1,0-0.1c0,0,0-0.1,0-0.1c0,0,0-0.1,0-0.1c0,0,0-0.1,0-0.1
			c0,0,0-0.1,0-0.1c0,0,0-0.1,0-0.2c0-0.1,0-0.1,0-0.2c0-0.1,0-0.1,0-0.2c0-0.1,0-0.1,0-0.2c0-0.1,0-0.3,0-0.4c0-0.1,0-0.2,0-0.4
			c0-0.1,0-0.2-0.1-0.3c0-0.1-0.1-0.2-0.1-0.3c0-0.1-0.1-0.2-0.2-0.2c-0.1-0.1-0.1-0.1-0.2-0.2s-0.2-0.1-0.3-0.1
			c-0.1,0-0.2-0.1-0.4-0.1c-0.1,0-0.3,0-0.4,0c-0.1,0-0.3,0.1-0.4,0.1c-0.1,0.1-0.2,0.1-0.3,0.2c-0.1,0.1-0.2,0.2-0.3,0.3
			c-0.1,0.1-0.2,0.2-0.2,0.3c-0.1,0.1-0.1,0.2-0.2,0.4c0,0.1-0.1,0.2-0.1,0.4c0,0.1,0,0.2,0,0.4c0,0.1,0,0.2,0,0.3
			c0,0.1,0,0.2,0,0.2c0,0.1,0,0.1,0,0.2c0,0.1,0,0.1,0.1,0.2c0,0.1,0,0.1,0.1,0.2c0,0.1,0,0.1,0.1,0.2c0,0,0,0.1,0.1,0.1
			c0,0,0,0.1,0.1,0.1c0,0,0,0,0,0c0,0,0,0,0,0c0,0,0,0,0,0c0,0,0,0,0,0c0,0,0,0,0,0c0,0,0,0,0,0c0,0,0,0,0,0c0,0,0,0-0.1,0
			c0,0-0.1,0-0.1,0.1c-0.1,0-0.1,0-0.2,0.1c-0.1,0-0.1,0.1-0.2,0.1s-0.2,0.1-0.3,0.1c-0.1,0.1-0.2,0.1-0.3,0.2
			c-0.1,0.1-0.2,0.2-0.4,0.2c-0.1,0.1-0.3,0.2-0.4,0.3c-0.1,0.1-0.3,0.2-0.4,0.4c-0.1,0.1-0.3,0.2-0.4,0.3c-0.1,0.1-0.3,0.2-0.4,0.3
			c-0.1,0.1-0.2,0.2-0.4,0.2c-0.1,0.1-0.2,0.1-0.3,0.2s-0.2,0.1-0.3,0.2c-0.1,0.1-0.1,0.1-0.2,0.2c-0.1,0.1-0.1,0.2-0.1,0.3
			c0,0.1-0.1,0.2-0.1,0.3c0,0.2,0,0.4,0.1,0.6c0,0.2,0.1,0.4,0.2,0.6c0.1,0.2,0.2,0.4,0.4,0.5c0.1,0.2,0.3,0.3,0.4,0.5
			c0.2,0.1,0.3,0.3,0.5,0.4c0.2,0.1,0.3,0.2,0.5,0.4c0.2,0.1,0.3,0.2,0.5,0.3c0.1,0.1,0.3,0.2,0.4,0.2c0.1,0.1,0.2,0.1,0.3,0.2
			c0.1,0.1,0.2,0.2,0.3,0.2c0.1,0.1,0.2,0.2,0.3,0.3c0.1,0.1,0.2,0.2,0.3,0.3c0.1,0.1,0.2,0.2,0.2,0.3c0.1,0.1,0.1,0.2,0.2,0.3
			c0.1,0.1,0.1,0.2,0.2,0.3c0.1,0.1,0.1,0.2,0.2,0.3c0.1,0.2,0.1,0.3,0.2,0.5c0.1,0.2,0.1,0.3,0.1,0.5c0,0.2,0.1,0.3,0.1,0.4
			c0,0.1,0.1,0.3,0.1,0.4s0,0.3,0,0.4c0,0.1,0,0.3,0,0.4c0,0.1,0,0.3,0,0.4c0,0.1,0,0.3,0,0.4c0,0.2-0.1,0.5-0.1,0.7
			c0,0.2-0.1,0.4-0.1,0.7c0,0.2-0.1,0.4-0.2,0.6c-0.1,0.2-0.1,0.4-0.2,0.6c-0.1,0.2-0.1,0.4-0.2,0.6c-0.1,0.2-0.1,0.4-0.2,0.6
			c-0.1,0.2-0.1,0.4-0.2,0.6s-0.1,0.4-0.2,0.6c-0.1,0.2-0.1,0.3-0.2,0.5c-0.1,0.2-0.1,0.3-0.2,0.5c-0.1,0.2-0.1,0.3-0.2,0.5
			s-0.1,0.3-0.2,0.4c-0.1,0.1-0.1,0.3-0.2,0.4c-0.1,0.1-0.1,0.3-0.2,0.4c-0.1,0.1-0.1,0.3-0.2,0.4c-0.1,0.1-0.1,0.2-0.2,0.4
			c-0.1,0.1-0.2,0.3-0.2,0.4c-0.1,0.1-0.2,0.3-0.2,0.4c-0.1,0.1-0.1,0.2-0.2,0.4c-0.1,0.1-0.1,0.2-0.2,0.3c-0.1,0.1-0.1,0.2-0.2,0.3
			c-0.1,0.1-0.1,0.2-0.2,0.3c-0.1,0.1-0.1,0.2-0.1,0.2c0,0.1-0.1,0.1-0.1,0.2c0,0.1-0.1,0.2-0.1,0.2c0,0.1,0,0.2-0.1,0.2
			c0,0.1,0,0.2,0,0.2c0,0.1,0,0.1,0,0.2c0,0.1,0,0.1,0.1,0.2c0,0.1,0.1,0.1,0.1,0.2c0,0.1,0.1,0.1,0.1,0.2c0,0,0.1,0.1,0.2,0.1
			c0,0,0.1,0.1,0.1,0.1c0,0,0.1,0,0.2,0.1c0.1,0,0.1,0,0.2,0c0.1,0,0.1,0,0.2,0s0.1,0,0.2,0c0.1,0,0.1,0,0.2,0s0.1,0,0.2-0.1
			c0.1,0,0.1,0,0.2-0.1c0.3-0.1,0.5-0.3,0.7-0.4c0.2-0.1,0.5-0.3,0.7-0.4c0.2-0.1,0.4-0.3,0.6-0.4c0.2-0.1,0.4-0.3,0.5-0.4
			s0.3-0.2,0.5-0.3c0.1-0.1,0.3-0.2,0.4-0.3c0.1-0.1,0.2-0.2,0.3-0.2c0.1-0.1,0.2-0.1,0.3-0.2c0.1,0,0.2-0.1,0.3-0.1
			c0.1,0,0.2-0.1,0.2-0.1c0.1,0,0.1,0,0.2,0c0.1,0,0.1,0,0.2,0c0.1,0,0.1,0,0.2,0c0.1,0,0.1,0,0.2,0.1c0.1,0,0.1,0.1,0.2,0.1
			c0,0,0.1,0.1,0.1,0.1c0,0.1,0.1,0.1,0.1,0.2c0,0.1,0.1,0.1,0.1,0.2c0,0.1,0,0.1,0.1,0.2c0,0.1,0,0.1,0,0.2c0,0.1,0,0.1,0,0.2
			s0,0.1-0.1,0.2c0,0.1-0.1,0.2-0.1,0.2c-0.1,0.1-0.1,0.1-0.2,0.2c-0.1,0.1-0.3,0.3-0.4,0.4c-0.2,0.1-0.3,0.3-0.5,0.4
			c-0.2,0.1-0.4,0.3-0.6,0.4c-0.2,0.1-0.4,0.3-0.6,0.4c-0.2,0.1-0.4,0.3-0.7,0.4c-0.2,0.1-0.4,0.3-0.7,0.4c-0.2,0.1-0.4,0.2-0.7,0.3
			c-0.2,0.1-0.4,0.2-0.7,0.3c-0.1,0-0.2,0.1-0.3,0.1c-0.1,0-0.2,0.1-0.3,0.1c-0.1,0-0.2,0.1-0.3,0.1c-0.1,0-0.2,0.1-0.3,0.1
			c-0.1,0-0.2,0.1-0.3,0.1c-0.1,0-0.2,0.1-0.3,0.1c-0.1,0-0.2,0-0.2,0.1c-0.1,0-0.1,0-0.2,0c-0.1,0-0.2,0-0.3,0.1
			c-0.1,0-0.2,0.1-0.2,0.1s-0.1,0.1-0.2,0.1c-0.1,0.1-0.1,0.1-0.1,0.2c0,0.1-0.1,0.1-0.1,0.2c0,0.1-0.1,0.1-0.1,0.2
			c0,0.1,0,0.1,0,0.2c0,0.1,0,0.1,0,0.2c0,0.1,0,0.1,0,0.2c0,0.1,0.1,0.1,0.1,0.2c0,0.1,0.1,0.1,0.1,0.2c0,0.1,0.1,0.1,0.2,0.1
			c0.1,0,0.1,0.1,0.2,0.1c0.1,0,0.1,0.1,0.2,0.1c0.1,0,0.2,0.1,0.2,0.1c0.1,0,0.2,0,0.3,0c0.2,0,0.4,0,0.7,0.1c0.2,0,0.5,0,0.8,0.1
			c0.3,0,0.6,0,0.9,0c0.3,0,0.6,0,1,0c0.3,0,0.7,0,1,0c0.4,0,0.7,0,1.1,0c0.4,0,0.7,0,1.1,0c0.4,0,0.7,0,1.1-0.1
			c0.4,0,0.7-0.1,1.1-0.1c0.4,0,0.8-0.1,1.2-0.1c0.4-0.1,0.8-0.1,1.2-0.2c0.4-0.1,0.8-0.1,1.2-0.2c0.4-0.1,0.8-0.2,1.1-0.3
			c0.4-0.1,0.7-0.2,1-0.3c0.3-0.1,0.6-0.2,0.9-0.3c0.3-0.1,0.5-0.2,0.8-0.3c0.1,0,0.1-0.1,0.2-0.1c0.1,0,0.1-0.1,0.2-0.1
			c0,0,0.1,0,0.1-0.1c0,0,0.1,0,0.1-0.1c0,0,0.1,0,0.1-0.1c0,0,0.1,0,0.1-0.1c0,0,0.1,0,0.1,0c0,0,0.1,0,0.1,0c0,0,0.1,0,0.1,0
			c0,0,0,0,0.1,0c0,0,0,0,0.1,0c0,0,0,0,0.1,0c0,0,0,0,0.1,0c0,0,0,0,0.1,0c0,0,0,0,0.1,0c0,0,0,0,0.1,0c0.2,0.1,0.5,0.2,0.7,0.3
			c0.2,0.1,0.5,0.2,0.7,0.2c0.2,0.1,0.5,0.1,0.7,0.2s0.5,0.1,0.7,0.2c0.2,0.1,0.5,0.1,0.7,0.1c0.2,0,0.5,0.1,0.7,0.1
			c0.2,0,0.5,0,0.7,0.1c0.2,0,0.5,0,0.7,0c0.8,0,1.7-0.1,2.4-0.2c0.8-0.2,1.6-0.4,2.3-0.7c0.7-0.3,1.4-0.7,2.1-1.1
			c0.6-0.4,1.2-0.9,1.8-1.5s1-1.1,1.5-1.8c0.4-0.6,0.8-1.3,1.1-2c0.3-0.7,0.5-1.5,0.7-2.3c0.2-0.8,0.2-1.6,0.2-2.4
			c0-0.4,0-0.9-0.1-1.4c-0.1-0.5-0.1-1-0.3-1.5c-0.1-0.5-0.3-1-0.4-1.6c-0.2-0.5-0.4-1.1-0.7-1.6c-0.3-0.6-0.6-1.1-0.9-1.7
			c-0.3-0.6-0.7-1.2-1.2-1.8c-0.4-0.6-0.9-1.2-1.4-1.9c-0.5-0.6-1.1-1.3-1.8-2c-0.1-0.1-0.3-0.3-0.4-0.4c-0.1-0.1-0.3-0.3-0.4-0.4
			c-0.1-0.1-0.2-0.3-0.3-0.4c-0.1-0.1-0.2-0.3-0.3-0.4c-0.1-0.1-0.2-0.3-0.2-0.4c-0.1-0.1-0.1-0.3-0.2-0.4c-0.1-0.1-0.1-0.3-0.1-0.4
			c0-0.1,0-0.2,0-0.4c0-0.1,0-0.1,0-0.2c0-0.1,0-0.1,0-0.2c0-0.1,0-0.1,0-0.2s0-0.1,0.1-0.2c0-0.1,0-0.1,0.1-0.2
			c0,0,0.1-0.1,0.1-0.1c0,0,0.1-0.1,0.1-0.1c0,0,0.1-0.1,0.1-0.1c0.1-0.1,0.1-0.1,0.2-0.1c0.1,0,0.2-0.1,0.2-0.1
			c0.1,0,0.2-0.1,0.2-0.1c0.1,0,0.2,0,0.3,0c0.1,0,0.2,0,0.3,0c0.1,0,0.2,0,0.3,0c0.1,0,0.2,0.1,0.3,0.1c0.1,0,0.2,0.1,0.3,0.1
			c0,0,0,0,0.1,0c0,0,0,0,0.1,0.1c0,0,0,0,0.1,0.1c0,0,0,0,0.1,0.1c0,0,0,0,0.1,0.1c0,0,0,0.1,0.1,0.1c0,0,0,0.1,0.1,0.1
			c0,0,0,0.1,0.1,0.1c0,0.1,0.1,0.1,0.1,0.2c0,0.1,0.1,0.1,0.1,0.2c0,0.1,0.1,0.1,0.1,0.2c0,0.1,0.1,0.1,0.1,0.2
			c0,0.1,0.1,0.1,0.1,0.2c0,0.1,0.1,0.1,0.1,0.2c0,0.1,0.1,0.1,0.1,0.2c0,0.1,0.1,0.1,0.1,0.2c0.2,0.2,0.4,0.4,0.7,0.6
			c0.2,0.2,0.5,0.3,0.8,0.5c0.3,0.1,0.5,0.3,0.8,0.4c0.3,0.1,0.6,0.2,0.9,0.2c0.3,0.1,0.6,0.1,0.9,0.1c0.3,0,0.6,0,0.9,0
			c0.3,0,0.6-0.1,0.9-0.2c0.3-0.1,0.6-0.2,0.9-0.3c0.3-0.1,0.5-0.2,0.8-0.4c0.3-0.2,0.5-0.3,0.7-0.5c0.2-0.2,0.4-0.4,0.6-0.6
			c0.2-0.2,0.4-0.5,0.6-0.7c0.2-0.3,0.3-0.5,0.4-0.8s0.2-0.6,0.3-0.9c0.1-0.3,0.1-0.6,0.2-0.9C386.8,754.8,386.8,754.5,386.8,754.1"
			/>
	</g>
	<g class="st5">
		<path d="M312.1,612.9c0,1.9-1.2,3.4-3.1,4c2.4,0.6,3.7,2.5,3.7,4.7c0,3.8-3.6,4.9-6.8,4.9c-2.7,0-5,0-7.7,0v-18.6c2.7,0,5,0,7.7,0
			C309.1,607.8,312.1,609.3,312.1,612.9z M299.7,616.2h6.4c2.2,0,4.6-0.7,4.6-3.3c0-2.7-2.5-3.9-4.8-3.9h-6.2V616.2z M299.7,625h6.2
			c2.4,0,5.4-0.6,5.4-3.5c0-2.9-2.7-3.9-5.2-3.9c-2.3,0-4.2,0-6.4,0V625z"/>
		<path d="M318,609c0,1.4-2.1,1.4-2.1,0C315.9,607.6,318,607.6,318,609z M316.3,613.2v13.2h1.3v-13.2H316.3z"/>
		<path d="M324.7,609.3v4h4.5v1.1h-4.5v8c0,1.8,0.4,3,2.4,3c0.6,0,1.4-0.2,2-0.5l0.5,1.1c-0.8,0.4-1.7,0.7-2.5,0.7
			c-2.8,0-3.7-1.6-3.7-4.2v-8h-2.8v-1.1h2.8v-3.8L324.7,609.3z"/>
		<path d="M342.6,624.6c-1.3,1.3-3.1,2-4.8,2c-3.7,0-6.8-2.6-6.8-6.8c0-4.1,3-6.8,6.8-6.8c1.7,0,3.5,0.7,4.8,2l-0.8,0.8
			c-1.1-1.1-2.6-1.6-4-1.6c-3,0-5.5,2-5.5,5.6c0,3.5,2.5,5.6,5.5,5.6c1.4,0,2.9-0.6,3.9-1.6L342.6,624.6z"/>
		<path d="M344.6,619.9c0-4.2,3-6.8,6.7-6.8s6.7,2.7,6.7,6.8c0,4.2-3,6.7-6.7,6.7S344.6,624,344.6,619.9z M356.7,619.9
			c0-3.4-2.4-5.6-5.4-5.6s-5.4,2.2-5.4,5.6s2.4,5.4,5.4,5.4S356.7,623.3,356.7,619.9z"/>
		<path d="M363.2,609c0,1.4-2.1,1.4-2.1,0C361.1,607.6,363.2,607.6,363.2,609z M361.5,613.2v13.2h1.3v-13.2H361.5z"/>
		<path d="M368.4,613.3v2.3c1-1.8,2.9-2.6,4.7-2.6c3.5,0,6,2.2,6,5.8v7.6h-1.3v-7.5c0-3-1.8-4.6-4.7-4.5c-2.7,0-4.6,2.1-4.6,4.8v7.3
			h-1.3v-13.1H368.4z"/>
		<path d="M392.7,609.3v4h4.5v1.1h-4.5v8c0,1.8,0.4,3,2.4,3c0.6,0,1.4-0.2,2-0.5l0.5,1.1c-0.8,0.4-1.7,0.7-2.5,0.7
			c-2.8,0-3.7-1.6-3.7-4.2v-8h-2.8v-1.1h2.8v-3.8L392.7,609.3z"/>
		<path d="M401.7,609c0,1.4-2.1,1.4-2.1,0C399.6,607.6,401.7,607.6,401.7,609z M399.9,613.2v13.2h1.3v-13.2H399.9z"/>
		<path d="M405.6,632.7v-19.5h1.3v3.1c1-2,3.2-3.3,5.7-3.3c3.6,0.1,6.4,2.5,6.4,6.7c0,4.4-3,6.8-6.7,6.8c-2.3,0-4.3-1.1-5.5-3.3v9.4
			H405.6z M417.7,619.8c0-3.7-2.4-5.5-5.4-5.5c-3.1,0-5.4,2.3-5.4,5.5c0,3.2,2.3,5.5,5.4,5.5C415.3,625.4,417.7,623.5,417.7,619.8z"
			/>
		<path d="M431.2,615.6c-1.3-1.2-2.7-1.4-4.1-1.4c-2.1,0-4,0.7-4,2.4c0.1,1.8,2.4,2.1,4,2.4c2.4,0.4,5.6,0.8,5.5,3.9
			c-0.1,2.9-3.1,3.7-5.4,3.7s-4.6-0.9-5.8-2.6l1-0.9c1.1,1.6,3.1,2.2,4.8,2.2c1.6,0,4-0.4,4.1-2.5c0.1-1.9-2.1-2.3-4.3-2.6
			c-2.6-0.4-5.1-0.9-5.1-3.5c0-2.6,2.6-3.7,5.3-3.7c1.9,0,3.6,0.5,4.9,1.8L431.2,615.6z"/>
	</g>
	<text transform="matrix(1.0083 0 0 1 238.8312 653.29)" class="st6 st7 st8">1DARAMfSNtwZ8H36NFqopRryQgqTCr6b9V</text>
	<text transform="matrix(1.0083 0 0 1 277.57 675.2432)" class="st6 st7 st8">http://daramghaus.com/bitcoin</text>
	<g>
		<path class="st5" d="M202.4,257.6c0,1.8-2.8,1.8-2.8,0C199.7,255.8,202.4,255.8,202.4,257.6z M200.2,263.1v17.2h1.7v-17.2H200.2z"
			/>
		<path class="st5" d="M210.1,271.9v8.4h-1.9V256c3.6,0,7.2,0,10.7,0c10.6,0,10.6,15.9,0,15.9H210.1z M210.1,257.8v12.5h8.9
			c8.2,0,8.2-12.5,0-12.5H210.1z"/>
		<path class="st5" d="M232.6,256v10.3c1.4-2.5,3.8-3.4,6.2-3.4c4.8,0,7.2,3.1,7.2,7.6v9.8h-1.7v-9.8c0-3.5-1.7-5.9-5.6-5.9
			c-3.6,0-6.2,2.8-6.2,6.4v9.4H231V256H232.6z"/>
		<path class="st5" d="M250.4,271.8c0-5.5,3.9-8.9,8.8-8.9c4.9,0,8.8,3.5,8.8,8.9c0,5.5-3.9,8.8-8.8,8.8
			C254.3,280.6,250.4,277.3,250.4,271.8z M266.3,271.8c0-4.4-3.2-7.3-7.1-7.3c-3.9,0-7.1,2.9-7.1,7.3s3.2,7.1,7.1,7.1
			C263.1,278.9,266.3,276.3,266.3,271.8z"/>
		<path class="st5" d="M274.2,263.2v3.1c1.3-2.4,3.7-3.3,6.2-3.4c4.6,0,7.8,2.8,7.8,7.6v9.9h-1.7v-9.9c0-3.9-2.4-6-6.2-5.9
			c-3.6,0-6.1,2.7-6.1,6.2v9.5h-1.7v-17.1H274.2z"/>
		<path class="st5" d="M292.5,271.7c0-5.1,3.9-8.9,8.8-8.9c4.9,0,9.2,3,8.5,9.7h-15.6c0.3,4,3.5,6.4,7,6.4c2.3,0,4.9-0.9,6.2-2.6
			l1.2,1c-1.7,2.2-4.7,3.3-7.5,3.3C296.4,280.6,292.5,277.2,292.5,271.7z M308.2,271.1c0-4.2-2.8-6.6-7-6.6c-3.6,0-6.7,2.4-7,6.6
			H308.2z"/>
		<path class="st5" d="M325.3,269c2-2.8,4.8-3.4,7.8-3.4c4.6,0,9.6,2.1,9.6,7.5c0,5.5-5,7.5-9.6,7.5c-4.7,0-9.7-2.1-9.7-7.6v-10.6
			c0-4.6,4.7-6.7,9.3-6.7c4.9,0,9,2,9.3,6.1h-1.9c-0.2-2.9-3.4-4.5-7.5-4.5c-3.7,0-7.5,1.7-7.5,5.1V269z M340.8,273.1
			c0-4-4.2-5.8-7.7-5.8c-3.5,0-7.8,1.8-7.8,5.8c0,4.4,4.3,5.8,7.8,5.8C336.6,278.8,340.8,277.5,340.8,273.1z"/>
		<path class="st5" d="M378.7,258.7l-9.4,14.2h-0.6l-9.5-14.2v21.6h-1.9V256c0.9,0,1.3,0,2.2,0l9.4,14.2l9.3-14.2h2.3v24.3h-1.9
			V258.7z"/>
		<path class="st5" d="M385.3,271.8c0-5.5,3.9-8.9,8.8-8.9c4.9,0,8.8,3.5,8.8,8.9c0,5.5-3.9,8.8-8.8,8.8
			C389.3,280.6,385.3,277.3,385.3,271.8z M401.2,271.8c0-4.4-3.2-7.3-7.1-7.3c-3.9,0-7.1,2.9-7.1,7.3s3.2,7.1,7.1,7.1
			C398,278.9,401.2,276.3,401.2,271.8z"/>
		<path class="st5" d="M421.5,278c-1.8,1.7-4,2.6-6.3,2.6c-4.9,0-8.9-3.4-8.9-8.9c0-5.4,3.9-8.9,8.9-8.9c2.3,0,4.6,0.9,6.3,2.6
			l-1.1,1.1c-1.4-1.4-3.4-2-5.2-2c-3.9,0-7.2,2.6-7.2,7.3c0,4.6,3.3,7.3,7.2,7.3c1.9,0,3.7-0.7,5.1-2.1L421.5,278z"/>
		<path class="st5" d="M427.3,256v14.7l8.2-7.5h2.3v0.1l-8.8,8l9.8,9v0.1h-2.2l-9.3-8.4v8.4h-1.7V256H427.3z"/>
		<path class="st5" d="M455.6,280.3v-3.1c-1.3,2.4-3.7,3.3-6.2,3.4c-4.6,0-7.8-2.8-7.8-7.6v-9.9h1.7v9.9c0,3.9,2.4,6,6.2,5.9
			c3.6,0,6.1-2.7,6.1-6.2v-9.5h1.7v17.2H455.6z"/>
		<path class="st5" d="M463,288.6v-25.4h1.7v4.1c1.4-2.6,4.1-4.3,7.5-4.3c4.7,0.2,8.4,3.3,8.4,8.8c0,5.8-3.9,8.9-8.8,8.9
			c-2.9,0-5.7-1.4-7.1-4.3v12.3H463z M478.8,271.7c0-4.8-3.2-7.2-7.1-7.2c-4,0-7,3-7,7.2c0,4.2,3,7.2,7,7.2
			C475.7,279,478.8,276.6,478.8,271.7z"/>
		<path class="st5" d="M513.4,280.3l-2.7-6h-14.6l-2.7,6h-2l11-24.3h2.1l11,24.3H513.4z M510,272.6l-6.6-14.8l-6.6,14.8H510z"/>
		<path class="st5" d="M519.8,280.3V256h1.9v24.3H519.8z"/>
	</g>
</g>
<g id="Yk0RnE.tif" class="st4">
	
		<image style="display:inline;overflow:visible;" width="754" height="1334" id="Layer_0" xlink:href="D7E1DC2070245488.png"  transform="matrix(0.5126 0 0 0.5083 168.4995 176.4127)">
	</image>
</g>
</svg>
