<?xml version="1.0" encoding="utf-8"?>
<!-- Generator: Adobe Illustrator 19.1.0, SVG Export Plug-In . SVG Version: 6.00 Build 0)  -->
<svg version="1.1" id="Capa_1" xmlns="http://www.w3.org/2000/svg" xmlns:xlink="http://www.w3.org/1999/xlink" x="0px" y="0px"
	 viewBox="-243 -206 512 512" style="enable-background:new -243 -206 512 512;" xml:space="preserve">
<style type="text/css">
	.st0{fill:#FFFFFF;}
</style>
<g>
	<g id="success-leader-winner-king-goal_1_">
		<path class="st0" d="M13-54c26.5,0,48-21.5,48-48c0-9.5-2.8-18.4-7.6-25.9l7.6-53c0.4-3.1-1-6.2-3.7-7.9c-2.7-1.7-6.1-1.6-8.7,0.1
			l-16.5,11l-11.9-23.9c-2.7-5.4-11.6-5.4-14.3,0l-12,23.9l-16.5-11c-2.6-1.8-6-1.8-8.7-0.1c-2.7,1.7-4.1,4.8-3.7,7.9l7.6,53
			c-4.8,7.5-7.6,16.4-7.6,25.9C-35-75.5-13.5-54,13-54z M13-70c-17.6,0-32-14.4-32-32s14.4-32,32-32s32,14.4,32,32S30.6-70,13-70z
			 M-7.4-159.3c1.9,1.3,4.3,1.7,6.5,1.1c2.2-0.6,4.1-2.1,5.1-4.2l8.8-17.7l8.8,17.7c1,2,2.9,3.6,5.1,4.2c2.2,0.6,4.6,0.2,6.5-1.1
			l9.1-6.1l-3.3,23.3c-7.6-4.9-16.6-7.8-26.2-7.8s-18.7,2.9-26.2,7.8l-3.3-23.3L-7.4-159.3z"/>
		<path class="st0" d="M117,258c0-4.4-3.6-8.4-8-8.4H84.3l-6.9-75.1c2.2-0.5,5.2-0.7,8-0.4c3.3,0.4,6.7,1.7,10.4,3l2.4,0.9
			c10.6,3.8,21.7,6.3,32.9,7.6c1.1,0.1,2.8,0.3,4.8,0.3c4.3,0,10-0.9,14.3-5.1c2.7-2.6,4-5.8,4.9-8.3c2.2-6.4,3.2-13.3,2.8-20
			c-1.9-32.8-13.2-62.8-33.4-89.1c-5.6-7.3-11.8-14.1-17.8-20.7c-10-11-19.3-21.6-25.9-33.6l47.7-23.9c0.8-0.4,1.5-0.9,2.1-1.5
			l56-56c3.1-3.1,3.1-8.2,0-11.3l-32-32c-3.1-3.1-8.2-3.1-11.3,0L88.6-61l-61,22.7H-1.5l-61-22.7l-54.8-54.7
			c-3.1-3.1-8.2-3.1-11.3,0l-32,32c-3.1,3.1-3.1,8.2,0,11.3l56,56c0.6,0.6,1.3,1.1,2.1,1.5l43.4,21.7c-0.6,25-15.5,52-28.9,76
			l-3.3,6c-15.9,28.8-28.2,59.5-36.6,91.4c-1,3.7,0.8,7.6,4.3,9.2c1.1,0.5,2.3,0.8,3.4,0.8c2.5,0,4.9-1.2,6.4-3.3
			c6.2-8.4,13.7-15.5,22.4-21.3c2.4-1.6,5.1-3.4,8-3.4c3.1,0.1,6.5,3.1,10.2,6.3c1.6,1.4,3.2,2.8,4.8,4c6.4,4.9,11.5,5.8,16.5,5.8
			l-6.5,71.2H-75c-4.4,0-8,3.9-8,8.4v31.6h-160v16h168c4.4,0,8-3.2,8-7.6v-32.4h16h48h32h48h24V298c0,4.4,3.6,7.6,8,7.6h160v-16H117
			V258z M111.9,73.2c18.2,23.7,28.4,50.8,30.1,80.3c0.3,4.6-0.4,9.4-1.9,13.8c-0.6,1.7-0.9,2.1-1,2.2c0,0-1,0.9-6.1,0.3
			c-10-1.1-19.8-3.4-29.3-6.7l-2.3-0.8c-4.4-1.6-8.9-3.2-14-3.8c-2.9-0.3-7.1-0.4-11.3,0.3L69,82V20.8c7.3,12.1,16.7,22.5,25.9,32.7
			C100.7,59.8,106.7,66.4,111.9,73.2z M25.5-22.4L13,10.9L0.5-22.4L25.5-22.4L25.5-22.4z M-58.6,160c-1.4-1-2.7-2.2-4-3.4
			c-5.1-4.4-11.5-10-20.3-10.2c-6.9-0.3-12.8,3.1-17.2,6c-1.1,0.7-2.1,1.4-3.2,2.2c7-20,15.8-39.4,26-58l3.3-5.9
			c12.4-22.3,27.4-49.3,30.5-76l0.5,0.3l0,66.3l-7.4,81.3C-54.1,162.8-55.4,162.4-58.6,160z M5.9,249.6l7.1-67.6l7.1,67.6L5.9,249.6
			L5.9,249.6z M36.2,249.6L21,105c-0.4-4.1-3.9-7.1-8-7.1s-7.5,3-8,7l-15.2,144.7h-32L-27,82V10c0-3-1.7-5.8-4.4-7.2l-62.8-31.4
			L-143.7-78l20.7-20.7l50.3,50.3c0.8,0.8,1.8,1.4,2.8,1.8l51.4,19.3l-0.1,0l24,64C6.7,39.9,9.7,42,13,42s6.3-2.1,7.5-5.2l24-64
			l-0.1,0l51.4-19.3c1.1-0.4,2-1,2.8-1.8L149-98.7L169.7-78l-49.4,49.4L57.4,2.8C54.7,4.2,53,7,53,10l0,72.6l15.2,167.1H36.2z"/>
	</g>
	<g id="Layer_1_27_">
	</g>
</g>
</svg>
